  0
SECTION
  2
HEADER
  9
$ACADVER
  1
AC1014
  9
$ACADMAINTVER
 70
     9
  9
$DWGCODEPAGE
  3
ANSI_1252
  9
$INSBASE
 10
0.0
 20
0.0
 30
0.0
  9
$EXTMIN
 10
1.000000000000000E+20
 20
1.000000000000000E+20
 30
1.000000000000000E+20
  9
$EXTMAX
 10
-1.000000000000000E+20
 20
-1.000000000000000E+20
 30
-1.000000000000000E+20
  9
$LIMMIN
 10
0.0
 20
0.0
  9
$LIMMAX
 10
12.0
 20
9.0
  9
$ORTHOMODE
 70
     0
  9
$REGENMODE
 70
     1
  9
$FILLMODE
 70
     1
  9
$QTEXTMODE
 70
     0
  9
$MIRRTEXT
 70
     1
  9
$DRAGMODE
 70
     2
  9
$LTSCALE
 40
1.0
  9
$OSMODE
 70
    37
  9
$ATTMODE
 70
     1
  9
$TEXTSIZE
 40
0.2
  9
$TRACEWID
 40
0.05
  9
$TEXTSTYLE
  7
STANDARD
  9
$CLAYER
  8
0
  9
$CELTYPE
  6
BYLAYER
  9
$CECOLOR
 62
   256
  9
$CELTSCALE
 40
1.0
  9
$DELOBJ
 70
     1
  9
$DISPSILH
 70
     0
  9
$DIMSCALE
 40
1.0
  9
$DIMASZ
 40
0.18
  9
$DIMEXO
 40
0.0625
  9
$DIMDLI
 40
0.38
  9
$DIMRND
 40
0.0
  9
$DIMDLE
 40
0.0
  9
$DIMEXE
 40
0.18
  9
$DIMTP
 40
0.0
  9
$DIMTM
 40
0.0
  9
$DIMTXT
 40
0.18
  9
$DIMCEN
 40
0.09
  9
$DIMTSZ
 40
0.0
  9
$DIMTOL
 70
     0
  9
$DIMLIM
 70
     0
  9
$DIMTIH
 70
     1
  9
$DIMTOH
 70
     1
  9
$DIMSE1
 70
     0
  9
$DIMSE2
 70
     0
  9
$DIMTAD
 70
     0
  9
$DIMZIN
 70
     0
  9
$DIMBLK
  1

  9
$DIMASO
 70
     1
  9
$DIMSHO
 70
     1
  9
$DIMPOST
  1

  9
$DIMAPOST
  1

  9
$DIMALT
 70
     0
  9
$DIMALTD
 70
     2
  9
$DIMALTF
 40
25.4
  9
$DIMLFAC
 40
1.0
  9
$DIMTOFL
 70
     0
  9
$DIMTVP
 40
0.0
  9
$DIMTIX
 70
     0
  9
$DIMSOXD
 70
     0
  9
$DIMSAH
 70
     0
  9
$DIMBLK1
  1

  9
$DIMBLK2
  1

  9
$DIMSTYLE
  2
STANDARD
  9
$DIMCLRD
 70
     0
  9
$DIMCLRE
 70
     0
  9
$DIMCLRT
 70
     0
  9
$DIMTFAC
 40
1.0
  9
$DIMGAP
 40
0.09
  9
$DIMJUST
 70
     0
  9
$DIMSD1
 70
     0
  9
$DIMSD2
 70
     0
  9
$DIMTOLJ
 70
     1
  9
$DIMTZIN
 70
     0
  9
$DIMALTZ
 70
     0
  9
$DIMALTTZ
 70
     0
  9
$DIMFIT
 70
     3
  9
$DIMUPT
 70
     0
  9
$DIMUNIT
 70
     2
  9
$DIMDEC
 70
     4
  9
$DIMTDEC
 70
     4
  9
$DIMALTU
 70
     2
  9
$DIMALTTD
 70
     2
  9
$DIMTXSTY
  7
STANDARD
  9
$DIMAUNIT
 70
     0
  9
$LUNITS
 70
     2
  9
$LUPREC
 70
     4
  9
$SKETCHINC
 40
0.1
  9
$FILLETRAD
 40
0.5
  9
$AUNITS
 70
     0
  9
$AUPREC
 70
     0
  9
$MENU
  1
.
  9
$ELEVATION
 40
0.0
  9
$PELEVATION
 40
0.0
  9
$THICKNESS
 40
0.0
  9
$LIMCHECK
 70
     0
  9
$CHAMFERA
 40
0.0
  9
$CHAMFERB
 40
0.0
  9
$CHAMFERC
 40
0.0
  9
$CHAMFERD
 40
0.0
  9
$SKPOLY
 70
     0
  9
$TDCREATE
 40
2459245.640018438
  9
$TDUPDATE
 40
2459245.640018877
  9
$TDINDWG
 40
0.0000000116
  9
$TDUSRTIMER
 40
0.0000000116
  9
$USRTIMER
 70
     1
  9
$ANGBASE
 50
0.0
  9
$ANGDIR
 70
     0
  9
$PDMODE
 70
     0
  9
$PDSIZE
 40
0.0
  9
$PLINEWID
 40
0.0
  9
$COORDS
 70
     1
  9
$SPLFRAME
 70
     0
  9
$SPLINETYPE
 70
     6
  9
$SPLINESEGS
 70
     8
  9
$ATTDIA
 70
     0
  9
$ATTREQ
 70
     1
  9
$HANDLING
 70
     1
  9
$HANDSEED
  5
1EE
  9
$SURFTAB1
 70
     6
  9
$SURFTAB2
 70
     6
  9
$SURFTYPE
 70
     6
  9
$SURFU
 70
     6
  9
$SURFV
 70
     6
  9
$UCSNAME
  2

  9
$UCSORG
 10
0.0
 20
0.0
 30
0.0
  9
$UCSXDIR
 10
1.0
 20
0.0
 30
0.0
  9
$UCSYDIR
 10
0.0
 20
1.0
 30
0.0
  9
$PUCSNAME
  2

  9
$PUCSORG
 10
0.0
 20
0.0
 30
0.0
  9
$PUCSXDIR
 10
1.0
 20
0.0
 30
0.0
  9
$PUCSYDIR
 10
0.0
 20
1.0
 30
0.0
  9
$USERI1
 70
     0
  9
$USERI2
 70
     0
  9
$USERI3
 70
     0
  9
$USERI4
 70
     0
  9
$USERI5
 70
     0
  9
$USERR1
 40
0.0
  9
$USERR2
 40
0.0
  9
$USERR3
 40
0.0
  9
$USERR4
 40
0.0
  9
$USERR5
 40
0.0
  9
$WORLDVIEW
 70
     1
  9
$SHADEDGE
 70
     3
  9
$SHADEDIF
 70
    70
  9
$TILEMODE
 70
     1
  9
$MAXACTVP
 70
    64
  9
$PINSBASE
 10
0.0
 20
0.0
 30
0.0
  9
$PLIMCHECK
 70
     0
  9
$PEXTMIN
 10
1.000000000000000E+20
 20
1.000000000000000E+20
 30
1.000000000000000E+20
  9
$PEXTMAX
 10
-1.000000000000000E+20
 20
-1.000000000000000E+20
 30
-1.000000000000000E+20
  9
$PLIMMIN
 10
0.0
 20
0.0
  9
$PLIMMAX
 10
12.0
 20
9.0
  9
$UNITMODE
 70
     0
  9
$VISRETAIN
 70
     1
  9
$PLINEGEN
 70
     0
  9
$PSLTSCALE
 70
     1
  9
$TREEDEPTH
 70
  3020
  9
$PICKSTYLE
 70
     1
  9
$CMLSTYLE
  2
STANDARD
  9
$CMLJUST
 70
     0
  9
$CMLSCALE
 40
1.0
  9
$PROXYGRAPHICS
 70
     1
  9
$MEASUREMENT
 70
     1
  0
ENDSEC
  0
SECTION
  2
CLASSES
  0
CLASS
  1
ACDBDICTIONARYWDFLT
  2
AcDbDictionaryWithDefault
  3
ObjectDBX Classes
 90
        0
280
     0
281
     0
  0
CLASS
  1
VISUALSTYLE
  2
AcDbVisualStyle
  3
ObjectDBX Classes
 90
     4095
280
     0
281
     0
  0
CLASS
  1
MATERIAL
  2
AcDbMaterial
  3
ObjectDBX Classes
 90
     1153
280
     0
281
     0
  0
CLASS
  1
SCALE
  2
AcDbScale
  3
ObjectDBX Classes
 90
     1153
280
     0
281
     0
  0
CLASS
  1
TABLESTYLE
  2
AcDbTableStyle
  3
ObjectDBX Classes
 90
     4095
280
     0
281
     0
  0
CLASS
  1
MLEADERSTYLE
  2
AcDbMLeaderStyle
  3
ACDB_MLEADERSTYLE_CLASS
 90
     4095
280
     0
281
     0
  0
CLASS
  1
SUN
  2
AcDbSun
  3
SCENEOE
 90
     1153
280
     0
281
     0
  0
CLASS
  1
DICTIONARYVAR
  2
AcDbDictionaryVar
  3
ObjectDBX Classes
 90
        0
280
     0
281
     0
  0
CLASS
  1
XRECORD
  2
AcDbXrecord
  3
ObjectDBX Classes
 90
        0
280
     0
281
     0
  0
CLASS
  1
LWPOLYLINE
  2
AcDbPolyline
  3
ObjectDBX Classes
 90
        0
280
     0
281
     1
  0
CLASS
  1
HATCH
  2
AcDbHatch
  3
ObjectDBX Classes
 90
        0
280
     0
281
     1
  0
CLASS
  1
ACDBPLACEHOLDER
  2
AcDbPlaceHolder
  3
ObjectDBX Classes
 90
        0
280
     0
281
     0
  0
CLASS
  1
LAYOUT
  2
AcDbLayout
  3
ObjectDBX Classes
 90
        0
280
     0
281
     0
  0
ENDSEC
  0
SECTION
  2
TABLES
  0
TABLE
  2
VPORT
  5
8
102
{ACAD_XDICTIONARY
360
1E3
102
}
330
0
100
AcDbSymbolTable
 70
     1
  0
VPORT
  5
29
330
8
100
AcDbSymbolTableRecord
100
AcDbViewportTableRecord
  2
*ACTIVE
 70
     0
 10
0.0
 20
0.0
 11
1.0
 21
1.0
 12
0.0
 22
0.0
 13
0.0
 23
0.0
 14
0.5
 24
0.5
 15
0.5
 25
0.5
 16
0.0
 26
0.0
 36
1.0
 17
0.0
 27
0.0
 37
-1000.0
 40
279.3116898624161
 41
1.643292682926829
 42
50.0
 43
263.3518046838385
 44
548.5593935627326
 50
0.0
 51
0.0
 71
     0
 72
   100
 73
     1
 74
     3
 75
     0
 76
     0
 77
     0
 78
     0
  0
ENDTAB
  0
TABLE
  2
LTYPE
  5
5
330
0
100
AcDbSymbolTable
 70
     1
  0
LTYPE
  5
14
330
5
100
AcDbSymbolTableRecord
100
AcDbLinetypeTableRecord
  2
BYBLOCK
 70
     0
  3

 72
    65
 73
     0
 40
0.0
  0
LTYPE
  5
15
330
5
100
AcDbSymbolTableRecord
100
AcDbLinetypeTableRecord
  2
BYLAYER
 70
     0
  3

 72
    65
 73
     0
 40
0.0
  0
LTYPE
  5
16
330
5
100
AcDbSymbolTableRecord
100
AcDbLinetypeTableRecord
  2
CONTINUOUS
 70
     0
  3
Solid line
 72
    65
 73
     0
 40
0.0
  0
ENDTAB
  0
TABLE
  2
LAYER
  5
2
330
0
100
AcDbSymbolTable
 70
     3
  0
LAYER
  5
10
330
2
100
AcDbSymbolTableRecord
100
AcDbLayerTableRecord
  2
0
 70
     0
 62
     7
  6
CONTINUOUS
  0
LAYER
  5
6E
330
2
100
AcDbSymbolTableRecord
100
AcDbLayerTableRecord
  2
PROFILEEDGES
 70
     0
 62
     7
  6
CONTINUOUS
  0
LAYER
  5
6F
330
2
100
AcDbSymbolTableRecord
100
AcDbLayerTableRecord
  2
SECTIONCUTEDGES
 70
     0
 62
     7
  6
CONTINUOUS
  0
ENDTAB
  0
TABLE
  2
STYLE
  5
3
330
0
100
AcDbSymbolTable
 70
     2
  0
STYLE
  5
11
330
3
100
AcDbSymbolTableRecord
100
AcDbTextStyleTableRecord
  2
STANDARD
 70
     0
 40
0.0
 41
1.0
 50
0.0
 71
     0
 42
0.2
  3
txt
  4

  0
STYLE
  5
1AB
330
3
100
AcDbSymbolTableRecord
100
AcDbTextStyleTableRecord
  2
TAHOMA
 70
     0
 40
0.0
 41
1.0
 50
0.0
 71
     0
 42
0.2
  3
Tahoma
  4

1001
ACAD
1000
Tahoma
1071
       34
  0
ENDTAB
  0
TABLE
  2
VIEW
  5
6
330
0
100
AcDbSymbolTable
 70
     0
  0
ENDTAB
  0
TABLE
  2
UCS
  5
7
330
0
100
AcDbSymbolTable
 70
     0
  0
ENDTAB
  0
TABLE
  2
APPID
  5
9
330
0
100
AcDbSymbolTable
 70
     2
  0
APPID
  5
12
330
9
100
AcDbSymbolTableRecord
100
AcDbRegAppTableRecord
  2
ACAD
 70
     0
  0
APPID
  5
1ED
330
9
100
AcDbSymbolTableRecord
100
AcDbRegAppTableRecord
  2
ACAD_MLEADERVER
 70
     0
  0
ENDTAB
  0
TABLE
  2
DIMSTYLE
  5
A
330
0
100
AcDbSymbolTable
 70
     1
  0
DIMSTYLE
105
27
330
A
100
AcDbSymbolTableRecord
100
AcDbDimStyleTableRecord
  2
STANDARD
 70
     0
  3

  4

  5

  6

  7

 40
1.0
 41
0.18
 42
0.0625
 43
0.38
 44
0.18
 45
0.0
 46
0.0
 47
0.0
 48
0.0
140
0.18
141
0.09
142
0.0
143
25.4
144
1.0
145
0.0
146
1.0
147
0.09
 71
     0
 72
     0
 73
     1
 74
     1
 75
     0
 76
     0
 77
     0
 78
     0
170
     0
171
     2
172
     0
173
     0
174
     0
175
     0
176
     0
177
     0
178
     0
270
     2
271
     4
272
     4
273
     2
274
     2
340
11
275
     0
280
     0
281
     0
282
     0
283
     1
284
     0
285
     0
286
     0
287
     3
288
     0
  0
ENDTAB
  0
TABLE
  2
BLOCK_RECORD
  5
1
330
0
100
AcDbSymbolTable
 70
     1
  0
BLOCK_RECORD
  5
1F
330
1
100
AcDbSymbolTableRecord
100
AcDbBlockTableRecord
  2
*MODEL_SPACE
  0
BLOCK_RECORD
  5
1B
330
1
100
AcDbSymbolTableRecord
100
AcDbBlockTableRecord
  2
*PAPER_SPACE
  0
ENDTAB
  0
ENDSEC
  0
SECTION
  2
BLOCKS
  0
BLOCK
  5
20
330
1F
100
AcDbEntity
  8
0
100
AcDbBlockBegin
  2
*MODEL_SPACE
 70
     0
 10
0.0
 20
0.0
 30
0.0
  3
*MODEL_SPACE
  1

  0
ENDBLK
  5
21
330
1F
100
AcDbEntity
  8
0
100
AcDbBlockEnd
  0
BLOCK
  5
1C
330
1B
100
AcDbEntity
 67
     1
  8
0
100
AcDbBlockBegin
  2
*PAPER_SPACE
 70
     0
 10
0.0
 20
0.0
 30
0.0
  3
*PAPER_SPACE
  1

  0
ENDBLK
  5
1D
330
1B
100
AcDbEntity
 67
     1
  8
0
100
AcDbBlockEnd
  0
ENDSEC
  0
SECTION
  2
ENTITIES
  0
LINE
  5
70
330
1F
100
AcDbEntity
  8
0
100
AcDbLine
 10
-140.3603830620629
 20
73.10752197045078
 30
0.0
 11
-140.3603830620629
 21
-0.8962041974058659
 31
0.0
  0
LINE
  5
71
330
1F
100
AcDbEntity
  8
0
100
AcDbLine
 10
-140.3603830620629
 20
-0.8962041974058659
 30
0.0
 11
56.63961693793716
 21
-0.8962041974058659
 31
0.0
  0
LINE
  5
72
330
1F
100
AcDbEntity
  8
0
100
AcDbLine
 10
112.6396169379367
 20
-0.8962041974058659
 30
0.0
 11
112.6396169379367
 21
73.10752197045078
 31
0.0
  0
LINE
  5
73
330
1F
100
AcDbEntity
  8
0
100
AcDbLine
 10
112.6396169379367
 20
73.10752197045078
 30
0.0
 11
71.63961693793722
 21
73.10752197045078
 31
0.0
  0
LINE
  5
74
330
1F
100
AcDbEntity
  8
0
100
AcDbLine
 10
-47.36038306206292
 20
6.107521970450786
 30
0.0
 11
-39.36038306206294
 21
6.107521970450786
 31
0.0
  0
LINE
  5
75
330
1F
100
AcDbEntity
  8
0
100
AcDbLine
 10
104.6003793406665
 20
14.10379580259413
 30
0.0
 11
94.63961693793713
 21
14.10379580259413
 31
0.0
  0
LINE
  5
76
330
1F
100
AcDbEntity
  8
0
100
AcDbLine
 10
94.63961693793713
 20
14.10379580259413
 30
0.0
 11
94.63961693793713
 21
58.10379580259411
 31
0.0
  0
LINE
  5
77
330
1F
100
AcDbEntity
  8
0
100
AcDbLine
 10
94.63961693793713
 20
58.10379580259411
 30
0.0
 11
104.6003793406665
 21
58.10379580259411
 31
0.0
  0
LINE
  5
78
330
1F
100
AcDbEntity
  8
0
100
AcDbLine
 10
104.6003793406665
 20
58.10379580259411
 30
0.0
 11
104.6003793406665
 21
14.10379580259413
 31
0.0
  0
LINE
  5
79
330
1F
100
AcDbEntity
  8
0
100
AcDbLine
 10
52.32224635987379
 20
66.10379580259412
 30
0.0
 11
42.34108670144495
 21
66.20521663058241
 31
0.0
  0
LINE
  5
7A
330
1F
100
AcDbEntity
  8
0
100
AcDbLine
 10
42.34108670144495
 20
66.20521663058241
 30
0.0
 11
42.34108670144495
 21
6.205216630582412
 31
0.0
  0
LINE
  5
7B
330
1F
100
AcDbEntity
  8
0
100
AcDbLine
 10
42.34108670144495
 20
6.205216630582412
 30
0.0
 11
52.32224635987379
 21
6.103795802594135
 31
0.0
  0
LINE
  5
7C
330
1F
100
AcDbEntity
  8
0
100
AcDbLine
 10
52.32224635987379
 20
6.103795802594135
 30
0.0
 11
52.32224635987379
 21
66.10379580259412
 31
0.0
  0
LINE
  5
7D
330
1F
100
AcDbEntity
  8
0
100
AcDbLine
 10
9.539616937937087
 20
66.10752197045078
 30
0.0
 11
-0.4603830620628951
 21
66.10752197045078
 31
0.0
  0
LINE
  5
7E
330
1F
100
AcDbEntity
  8
0
100
AcDbLine
 10
-0.4603830620628951
 20
66.10752197045078
 30
0.0
 11
-0.4603830620628951
 21
6.107521970450774
 31
0.0
  0
LINE
  5
7F
330
1F
100
AcDbEntity
  8
0
100
AcDbLine
 10
-0.4603830620628951
 20
6.107521970450774
 30
0.0
 11
9.539616937937087
 21
6.107521970450774
 31
0.0
  0
LINE
  5
80
330
1F
100
AcDbEntity
  8
0
100
AcDbLine
 10
9.539616937937087
 20
6.107521970450774
 30
0.0
 11
9.539616937937087
 21
66.10752197045078
 31
0.0
  0
LINE
  5
81
330
1F
100
AcDbEntity
  8
0
100
AcDbLine
 10
68.63961693793718
 20
90.10752197045078
 30
0.0
 11
59.63961693793716
 21
90.10752197045078
 31
0.0
  0
LINE
  5
82
330
1F
100
AcDbEntity
  8
0
100
AcDbLine
 10
59.63961693793716
 20
90.10752197045078
 30
0.0
 11
59.63961693793716
 21
85.10752197045078
 31
0.0
  0
LINE
  5
83
330
1F
100
AcDbEntity
  8
0
100
AcDbLine
 10
59.63961693793716
 20
-17.89620419740586
 30
0.0
 11
59.63961693793716
 21
-12.89620419740587
 31
0.0
  0
LINE
  5
84
330
1F
100
AcDbEntity
  8
0
100
AcDbLine
 10
68.63961693793718
 20
-17.89620419740586
 30
0.0
 11
59.63961693793716
 21
-17.89620419740586
 31
0.0
  0
LINE
  5
85
330
1F
100
AcDbEntity
  8
0
100
AcDbLine
 10
68.63961693793718
 20
85.10752197045078
 30
0.0
 11
68.63961693793718
 21
90.10752197045078
 31
0.0
  0
LINE
  5
86
330
1F
100
AcDbEntity
  8
0
100
AcDbLine
 10
68.63961693793718
 20
85.10752197045078
 30
0.0
 11
68.63961693793718
 21
73.10752197045078
 31
0.0
  0
LINE
  5
87
330
1F
100
AcDbEntity
  8
0
100
AcDbLine
 10
59.63961693793716
 20
85.10752197045078
 30
0.0
 11
59.63961693793716
 21
73.10752197045078
 31
0.0
  0
LINE
  5
88
330
1F
100
AcDbEntity
  8
0
100
AcDbLine
 10
68.63961693793718
 20
73.10752197045078
 30
0.0
 11
59.63961693793716
 21
73.10752197045078
 31
0.0
  0
LINE
  5
89
330
1F
100
AcDbEntity
  8
0
100
AcDbLine
 10
68.63961693793718
 20
85.10752197045078
 30
0.0
 11
59.63961693793716
 21
85.10752197045078
 31
0.0
  0
LINE
  5
8A
330
1F
100
AcDbEntity
  8
0
100
AcDbLine
 10
71.63961693793722
 20
72.10752197045078
 30
0.0
 11
71.5885056773708
 21
71.71929340279699
 31
0.0
  0
LINE
  5
8B
330
1F
100
AcDbEntity
  8
0
100
AcDbLine
 10
71.5885056773708
 20
71.71929340279699
 30
0.0
 11
71.43865504361388
 21
71.35752197045076
 31
0.0
  0
LINE
  5
8C
330
1F
100
AcDbEntity
  8
0
100
AcDbLine
 10
71.43865504361388
 20
71.35752197045076
 30
0.0
 11
71.200277109717
 21
71.04686179867095
 31
0.0
  0
LINE
  5
8D
330
1F
100
AcDbEntity
  8
0
100
AcDbLine
 10
71.200277109717
 20
71.04686179867095
 30
0.0
 11
70.8896169379372
 21
70.8084838647741
 31
0.0
  0
LINE
  5
8E
330
1F
100
AcDbEntity
  8
0
100
AcDbLine
 10
70.8896169379372
 20
70.8084838647741
 30
0.0
 11
70.527845505591
 21
70.65863323101715
 31
0.0
  0
LINE
  5
8F
330
1F
100
AcDbEntity
  8
0
100
AcDbLine
 10
70.527845505591
 20
70.65863323101715
 30
0.0
 11
70.1396169379372
 21
70.60752197045076
 31
0.0
  0
LINE
  5
90
330
1F
100
AcDbEntity
  8
0
100
AcDbLine
 10
70.1396169379372
 20
70.60752197045076
 30
0.0
 11
69.7513883702834
 21
70.65863323101715
 31
0.0
  0
LINE
  5
91
330
1F
100
AcDbEntity
  8
0
100
AcDbLine
 10
69.7513883702834
 20
70.65863323101715
 30
0.0
 11
69.38961693793719
 21
70.8084838647741
 31
0.0
  0
LINE
  5
92
330
1F
100
AcDbEntity
  8
0
100
AcDbLine
 10
69.38961693793719
 20
70.8084838647741
 30
0.0
 11
69.0789567661574
 21
71.04686179867095
 31
0.0
  0
LINE
  5
93
330
1F
100
AcDbEntity
  8
0
100
AcDbLine
 10
69.0789567661574
 20
71.04686179867095
 30
0.0
 11
68.84057883226053
 21
71.35752197045076
 31
0.0
  0
LINE
  5
94
330
1F
100
AcDbEntity
  8
0
100
AcDbLine
 10
68.84057883226053
 20
71.35752197045076
 30
0.0
 11
68.69072819850359
 21
71.71929340279699
 31
0.0
  0
LINE
  5
95
330
1F
100
AcDbEntity
  8
0
100
AcDbLine
 10
68.69072819850359
 20
71.71929340279699
 30
0.0
 11
68.63961693793718
 21
72.10752197045078
 31
0.0
  0
LINE
  5
96
330
1F
100
AcDbEntity
  8
0
100
AcDbLine
 10
59.63961693793716
 20
72.10752197045078
 30
0.0
 11
59.56806117314418
 21
71.56400197573548
 31
0.0
  0
LINE
  5
97
330
1F
100
AcDbEntity
  8
0
100
AcDbLine
 10
59.56806117314418
 20
71.56400197573548
 30
0.0
 11
59.35827028588446
 21
71.05752197045076
 31
0.0
  0
LINE
  5
98
330
1F
100
AcDbEntity
  8
0
100
AcDbLine
 10
59.35827028588446
 20
71.05752197045076
 30
0.0
 11
59.0245411784289
 21
70.62259772995901
 31
0.0
  0
LINE
  5
99
330
1F
100
AcDbEntity
  8
0
100
AcDbLine
 10
59.0245411784289
 20
70.62259772995901
 30
0.0
 11
58.58961693793717
 21
70.28886862250344
 31
0.0
  0
LINE
  5
9A
330
1F
100
AcDbEntity
  8
0
100
AcDbLine
 10
58.58961693793717
 20
70.28886862250344
 30
0.0
 11
58.08313693265241
 21
70.07907773524371
 31
0.0
  0
LINE
  5
9B
330
1F
100
AcDbEntity
  8
0
100
AcDbLine
 10
58.08313693265241
 20
70.07907773524371
 30
0.0
 11
57.53961693793713
 21
70.00752197045075
 31
0.0
  0
LINE
  5
9C
330
1F
100
AcDbEntity
  8
0
100
AcDbLine
 10
57.53961693793713
 20
70.00752197045075
 30
0.0
 11
56.99609694322186
 21
70.07907773524371
 31
0.0
  0
LINE
  5
9D
330
1F
100
AcDbEntity
  8
0
100
AcDbLine
 10
56.99609694322186
 20
70.07907773524371
 30
0.0
 11
56.48961693793715
 21
70.28886862250344
 31
0.0
  0
LINE
  5
9E
330
1F
100
AcDbEntity
  8
0
100
AcDbLine
 10
56.48961693793715
 20
70.28886862250344
 30
0.0
 11
56.05469269744537
 21
70.62259772995901
 31
0.0
  0
LINE
  5
9F
330
1F
100
AcDbEntity
  8
0
100
AcDbLine
 10
56.05469269744537
 20
70.62259772995901
 30
0.0
 11
55.72096358998981
 21
71.05752197045076
 31
0.0
  0
LINE
  5
A0
330
1F
100
AcDbEntity
  8
0
100
AcDbLine
 10
55.72096358998981
 20
71.05752197045076
 30
0.0
 11
55.51117270273009
 21
71.56400197573548
 31
0.0
  0
LINE
  5
A1
330
1F
100
AcDbEntity
  8
0
100
AcDbLine
 10
55.51117270273009
 20
71.56400197573548
 30
0.0
 11
55.43961693793712
 21
72.10752197045078
 31
0.0
  0
LINE
  5
A2
330
1F
100
AcDbEntity
  8
0
100
AcDbLine
 10
59.63961693793716
 20
72.10752197045078
 30
0.0
 11
59.63961693793716
 21
73.10752197045078
 31
0.0
  0
LINE
  5
A3
330
1F
100
AcDbEntity
  8
0
100
AcDbLine
 10
55.43961693793712
 20
73.10752197045078
 30
0.0
 11
-140.3603830620629
 21
73.10752197045078
 31
0.0
  0
LINE
  5
A4
330
1F
100
AcDbEntity
  8
0
100
AcDbLine
 10
55.43961693793712
 20
72.10752197045078
 30
0.0
 11
55.43961693793712
 21
73.10752197045078
 31
0.0
  0
LINE
  5
A5
330
1F
100
AcDbEntity
  8
0
100
AcDbLine
 10
71.63961693793722
 20
72.10752197045078
 30
0.0
 11
71.63961693793722
 21
73.10752197045078
 31
0.0
  0
LINE
  5
A6
330
1F
100
AcDbEntity
  8
0
100
AcDbLine
 10
68.63961693793718
 20
72.10752197045078
 30
0.0
 11
68.63961693793718
 21
73.10752197045078
 31
0.0
  0
LINE
  5
A7
330
1F
100
AcDbEntity
  8
0
100
AcDbLine
 10
68.63961693793718
 20
0.1037958025941331
 30
0.0
 11
68.69072819850359
 21
0.4920243702479194
 31
0.0
  0
LINE
  5
A8
330
1F
100
AcDbEntity
  8
0
100
AcDbLine
 10
68.69072819850359
 20
0.4920243702479194
 30
0.0
 11
68.84057883226053
 21
0.8537958025941429
 31
0.0
  0
LINE
  5
A9
330
1F
100
AcDbEntity
  8
0
100
AcDbLine
 10
68.84057883226053
 20
0.8537958025941429
 30
0.0
 11
69.0789567661574
 21
1.164455974373968
 31
0.0
  0
LINE
  5
AA
330
1F
100
AcDbEntity
  8
0
100
AcDbLine
 10
69.0789567661574
 20
1.164455974373968
 30
0.0
 11
69.38961693793719
 21
1.402833908270808
 31
0.0
  0
LINE
  5
AB
330
1F
100
AcDbEntity
  8
0
100
AcDbLine
 10
69.38961693793719
 20
1.402833908270808
 30
0.0
 11
69.7513883702834
 21
1.552684542027754
 31
0.0
  0
LINE
  5
AC
330
1F
100
AcDbEntity
  8
0
100
AcDbLine
 10
69.7513883702834
 20
1.552684542027754
 30
0.0
 11
70.1396169379372
 21
1.603795802594153
 31
0.0
  0
LINE
  5
AD
330
1F
100
AcDbEntity
  8
0
100
AcDbLine
 10
70.1396169379372
 20
1.603795802594153
 30
0.0
 11
70.527845505591
 21
1.552684542027755
 31
0.0
  0
LINE
  5
AE
330
1F
100
AcDbEntity
  8
0
100
AcDbLine
 10
70.527845505591
 20
1.552684542027755
 30
0.0
 11
70.8896169379372
 21
1.402833908270808
 31
0.0
  0
LINE
  5
AF
330
1F
100
AcDbEntity
  8
0
100
AcDbLine
 10
70.8896169379372
 20
1.402833908270808
 30
0.0
 11
71.200277109717
 21
1.164455974373968
 31
0.0
  0
LINE
  5
B0
330
1F
100
AcDbEntity
  8
0
100
AcDbLine
 10
71.200277109717
 20
1.164455974373968
 30
0.0
 11
71.43865504361388
 21
0.8537958025941429
 31
0.0
  0
LINE
  5
B1
330
1F
100
AcDbEntity
  8
0
100
AcDbLine
 10
71.43865504361388
 20
0.8537958025941429
 30
0.0
 11
71.5885056773708
 21
0.4920243702479192
 31
0.0
  0
LINE
  5
B2
330
1F
100
AcDbEntity
  8
0
100
AcDbLine
 10
71.5885056773708
 20
0.4920243702479192
 30
0.0
 11
71.63961693793722
 21
0.1037958025941326
 31
0.0
  0
LINE
  5
B3
330
1F
100
AcDbEntity
  8
0
100
AcDbLine
 10
56.63961693793716
 20
0.103795802594134
 30
0.0
 11
56.69072819850358
 21
0.4920243702479086
 31
0.0
  0
LINE
  5
B4
330
1F
100
AcDbEntity
  8
0
100
AcDbLine
 10
56.69072819850358
 20
0.4920243702479086
 30
0.0
 11
56.8405788322605
 21
0.8537958025941214
 31
0.0
  0
LINE
  5
B5
330
1F
100
AcDbEntity
  8
0
100
AcDbLine
 10
56.8405788322605
 20
0.8537958025941214
 30
0.0
 11
57.07895676615733
 21
1.164455974373937
 31
0.0
  0
LINE
  5
B6
330
1F
100
AcDbEntity
  8
0
100
AcDbLine
 10
57.07895676615733
 20
1.164455974373937
 30
0.0
 11
57.38961693793712
 21
1.40283390827077
 31
0.0
  0
LINE
  5
B7
330
1F
100
AcDbEntity
  8
0
100
AcDbLine
 10
57.38961693793712
 20
1.40283390827077
 30
0.0
 11
57.75138837028338
 21
1.552684542027712
 31
0.0
  0
LINE
  5
B8
330
1F
100
AcDbEntity
  8
0
100
AcDbLine
 10
57.75138837028338
 20
1.552684542027712
 30
0.0
 11
58.13961693793713
 21
1.603795802594109
 31
0.0
  0
LINE
  5
B9
330
1F
100
AcDbEntity
  8
0
100
AcDbLine
 10
58.13961693793713
 20
1.603795802594109
 30
0.0
 11
58.52784550559089
 21
1.552684542027712
 31
0.0
  0
LINE
  5
BA
330
1F
100
AcDbEntity
  8
0
100
AcDbLine
 10
58.52784550559089
 20
1.552684542027712
 30
0.0
 11
58.8896169379371
 21
1.402833908270771
 31
0.0
  0
LINE
  5
BB
330
1F
100
AcDbEntity
  8
0
100
AcDbLine
 10
58.8896169379371
 20
1.402833908270771
 30
0.0
 11
59.20027710971694
 21
1.164455974373938
 31
0.0
  0
LINE
  5
BC
330
1F
100
AcDbEntity
  8
0
100
AcDbLine
 10
59.20027710971694
 20
1.164455974373938
 30
0.0
 11
59.43865504361376
 21
0.8537958025941217
 31
0.0
  0
LINE
  5
BD
330
1F
100
AcDbEntity
  8
0
100
AcDbLine
 10
59.43865504361376
 20
0.8537958025941217
 30
0.0
 11
59.58850567737069
 21
0.4920243702479086
 31
0.0
  0
LINE
  5
BE
330
1F
100
AcDbEntity
  8
0
100
AcDbLine
 10
59.58850567737069
 20
0.4920243702479086
 30
0.0
 11
59.63961693793716
 21
0.1037958025941331
 31
0.0
  0
LINE
  5
BF
330
1F
100
AcDbEntity
  8
0
100
AcDbLine
 10
56.63961693793716
 20
0.103795802594134
 30
0.0
 11
56.63961693793716
 21
-0.8962041974058659
 31
0.0
  0
LINE
  5
C0
330
1F
100
AcDbEntity
  8
0
100
AcDbLine
 10
71.63961693793722
 20
-0.8962041974058659
 30
0.0
 11
112.6396169379367
 21
-0.8962041974058659
 31
0.0
  0
LINE
  5
C1
330
1F
100
AcDbEntity
  8
0
100
AcDbLine
 10
71.63961693793722
 20
0.1037958025941326
 30
0.0
 11
71.63961693793722
 21
-0.8962041974058659
 31
0.0
  0
LINE
  5
C2
330
1F
100
AcDbEntity
  8
0
100
AcDbLine
 10
68.63961693793718
 20
-12.89620419740587
 30
0.0
 11
68.63961693793718
 21
-17.89620419740586
 31
0.0
  0
LINE
  5
C3
330
1F
100
AcDbEntity
  8
0
100
AcDbLine
 10
68.63961693793718
 20
-12.89620419740587
 30
0.0
 11
68.63961693793718
 21
-0.8962041974058659
 31
0.0
  0
LINE
  5
C4
330
1F
100
AcDbEntity
  8
0
100
AcDbLine
 10
59.63961693793716
 20
0.1037958025941331
 30
0.0
 11
59.63961693793716
 21
-0.8962041974058659
 31
0.0
  0
LINE
  5
C5
330
1F
100
AcDbEntity
  8
0
100
AcDbLine
 10
68.63961693793718
 20
0.1037958025941331
 30
0.0
 11
68.63961693793718
 21
-0.8962041974058659
 31
0.0
  0
LINE
  5
C6
330
1F
100
AcDbEntity
  8
0
100
AcDbLine
 10
59.63961693793716
 20
-12.89620419740587
 30
0.0
 11
59.63961693793716
 21
-0.8962041974058659
 31
0.0
  0
LINE
  5
C7
330
1F
100
AcDbEntity
  8
0
100
AcDbLine
 10
68.63961693793718
 20
-12.89620419740587
 30
0.0
 11
59.63961693793716
 21
-12.89620419740587
 31
0.0
  0
LINE
  5
C8
330
1F
100
AcDbEntity
  8
0
100
AcDbLine
 10
68.63961693793718
 20
-0.8962041974058659
 30
0.0
 11
59.63961693793716
 21
-0.8962041974058659
 31
0.0
  0
LINE
  5
C9
330
1F
100
AcDbEntity
  8
0
 62
   250
100
AcDbLine
 10
42.34108670144495
 20
4.502096570445728
 30
0.0
 11
42.34108670144495
 21
-25.16533240946139
 31
0.0
  0
LINE
  5
CA
330
1F
100
AcDbEntity
  8
0
 62
   250
100
AcDbLine
 10
52.32224635987379
 20
4.400675742457452
 30
0.0
 11
52.32224635987379
 21
-25.16533240946139
 31
0.0
  0
LINE
  5
CB
330
1F
100
AcDbEntity
  8
0
 62
   250
100
AcDbLine
 10
94.63961693793713
 20
12.40067574245744
 30
0.0
 11
94.63961693793713
 21
-10.21311262808418
 31
0.0
  0
LINE
  5
CC
330
1F
100
AcDbEntity
  8
0
 62
   250
100
AcDbLine
 10
104.6003793406665
 20
12.40067574245744
 30
0.0
 11
104.6003793406665
 21
-10.21311262808418
 31
0.0
  0
LINE
  5
CD
330
1F
100
AcDbEntity
  8
0
 62
   250
100
AcDbLine
 10
54.02536642001046
 20
6.103795802594136
 30
0.0
 11
68.43119526342176
 21
6.103795802594142
 31
0.0
  0
LINE
  5
CE
330
1F
100
AcDbEntity
  8
0
 62
   250
100
AcDbLine
 10
54.02536642001049
 20
66.10379580259412
 30
0.0
 11
68.43119526342174
 21
66.10379580259414
 31
0.0
  0
LINE
  5
CF
330
1F
100
AcDbEntity
  8
0
 62
   250
100
AcDbLine
 10
66.72807520328509
 20
6.103795802594141
 30
0.0
 11
66.72807520328512
 21
30.78154561466699
 31
0.0
  0
LINE
  5
D0
330
1F
100
AcDbEntity
  8
0
 62
   250
100
AcDbLine
 10
66.72807520328512
 20
41.42604599052125
 30
0.0
 11
66.72807520328506
 21
66.10379580259412
 31
0.0
  0
LINE
  5
D1
330
1F
100
AcDbEntity
  8
0
 62
   250
100
AcDbLine
 10
114.3427369980734
 20
-0.8962041974058652
 30
0.0
 11
129.2799268343718
 21
-0.8962041974058595
 31
0.0
  0
LINE
  5
D2
330
1F
100
AcDbEntity
  8
0
 62
   250
100
AcDbLine
 10
114.3427369980734
 20
73.10752197045078
 30
0.0
 11
129.2799268343718
 21
73.10752197045079
 31
0.0
  0
LINE
  5
D3
330
1F
100
AcDbEntity
  8
0
 62
   250
100
AcDbLine
 10
127.5768067742351
 20
-0.8962041974058603
 30
0.0
 11
127.5768067742351
 21
30.78340869859532
 31
0.0
  0
LINE
  5
D4
330
1F
100
AcDbEntity
  8
0
 62
   250
100
AcDbLine
 10
127.5768067742351
 20
41.42790907444959
 30
0.0
 11
127.5768067742351
 21
73.10752197045079
 31
0.0
  0
LINE
  5
D5
330
1F
100
AcDbEntity
  8
0
 62
   250
100
AcDbLine
 10
90.33961693793712
 20
74.81064203058746
 30
0.0
 11
90.33961693793712
 21
82.50181093445732
 31
0.0
  0
LINE
  5
D6
330
1F
100
AcDbEntity
  8
0
 62
   250
100
AcDbLine
 10
52.32224635987379
 20
67.8069158627308
 30
0.0
 11
52.32224635987379
 21
82.50181093445732
 31
0.0
  0
LINE
  5
D7
330
1F
100
AcDbEntity
  8
0
 62
   250
100
AcDbLine
 10
90.33961693793712
 20
80.79869087432064
 30
0.0
 11
85.38167214503316
 21
80.79869087432067
 31
0.0
  0
LINE
  5
D8
330
1F
100
AcDbEntity
  8
0
 62
   250
100
AcDbLine
 10
57.28019115277783
 20
80.79869087432067
 30
0.0
 11
52.32224635987379
 21
80.79869087432064
 31
0.0
  0
LINE
  5
D9
330
1F
100
AcDbEntity
  8
0
 62
   250
100
AcDbLine
 10
-140.3603830620629
 20
-2.59932425754255
 30
0.0
 11
-140.3603830620629
 21
-43.87971158867081
 31
0.0
  0
LINE
  5
DA
330
1F
100
AcDbEntity
  8
0
 62
   250
100
AcDbLine
 10
-73.36038306206292
 20
-2.59932425754255
 30
0.0
 11
-73.36038306206292
 21
-43.87971158867081
 31
0.0
  0
LINE
  5
DB
330
1F
100
AcDbEntity
  8
0
 62
   250
100
AcDbLine
 10
-140.3603830620629
 20
-42.17659152853413
 30
0.0
 11
-120.9111235581906
 21
-42.17659152853415
 31
0.0
  0
LINE
  5
DC
330
1F
100
AcDbEntity
  8
0
 62
   250
100
AcDbLine
 10
-92.80964256593529
 20
-42.17659152853415
 30
0.0
 11
-73.36038306206292
 21
-42.17659152853413
 31
0.0
  0
LINE
  5
DD
330
1F
100
AcDbEntity
  8
0
 62
   250
100
AcDbLine
 10
-54.96038306206291
 20
-2.59932425754255
 30
0.0
 11
-54.96038306206291
 21
-43.87971158867081
 31
0.0
  0
LINE
  5
DE
330
1F
100
AcDbEntity
  8
0
 62
   250
100
AcDbLine
 10
-73.36038306206292
 20
-2.59932425754255
 30
0.0
 11
-73.36038306206292
 21
-43.87971158867081
 31
0.0
  0
LINE
  5
DF
330
1F
100
AcDbEntity
  8
0
 62
   250
100
AcDbLine
 10
-0.4603830620628951
 20
-2.59932425754255
 30
0.0
 11
-0.4603830620628951
 21
-43.87971158867081
 31
0.0
  0
LINE
  5
E0
330
1F
100
AcDbEntity
  8
0
 62
   250
100
AcDbLine
 10
-54.96038306206291
 20
-2.59932425754255
 30
0.0
 11
-54.96038306206291
 21
-43.87971158867081
 31
0.0
  0
LINE
  5
E1
330
1F
100
AcDbEntity
  8
0
 62
   250
100
AcDbLine
 10
-0.4603830620628951
 20
-42.17659152853413
 30
0.0
 11
-13.65964256593524
 21
-42.17659152853415
 31
0.0
  0
LINE
  5
E2
330
1F
100
AcDbEntity
  8
0
 62
   250
100
AcDbLine
 10
-41.76112355819052
 20
-42.17659152853415
 30
0.0
 11
-54.96038306206291
 21
-42.17659152853413
 31
0.0
  0
LINE
  5
E3
330
1F
100
AcDbEntity
  8
0
 62
   250
100
AcDbLine
 10
-0.4603830620628951
 20
-2.59932425754255
 30
0.0
 11
-0.4603830620628951
 21
-43.87971158867081
 31
0.0
  0
LINE
  5
E4
330
1F
100
AcDbEntity
  8
0
 62
   250
100
AcDbLine
 10
9.539616937937087
 20
-2.59932425754255
 30
0.0
 11
9.539616937937087
 21
-43.87971158867081
 31
0.0
  0
LINE
  5
E5
330
1F
100
AcDbEntity
  8
0
 62
   250
100
AcDbLine
 10
-54.96038306206291
 20
-2.59932425754255
 30
0.0
 11
-54.96038306206291
 21
-52.79299123873242
 31
0.0
  0
LINE
  5
E6
330
1F
100
AcDbEntity
  8
0
 62
   250
100
AcDbLine
 10
16.53961693793712
 20
-2.59932425754255
 30
0.0
 11
16.53961693793712
 21
-52.79299123873242
 31
0.0
  0
LINE
  5
E7
330
1F
100
AcDbEntity
  8
0
 62
   250
100
AcDbLine
 10
-54.96038306206291
 20
-51.08987117859574
 30
0.0
 11
-33.26112355819055
 21
-51.08987117859575
 31
0.0
  0
LINE
  5
E8
330
1F
100
AcDbEntity
  8
0
 62
   250
100
AcDbLine
 10
-5.159642565935233
 20
-51.08987117859575
 30
0.0
 11
16.53961693793712
 21
-51.08987117859574
 31
0.0
  0
LINE
  5
E9
330
1F
100
AcDbEntity
  8
0
 62
   250
100
AcDbLine
 10
16.53961693793712
 20
-2.59932425754255
 30
0.0
 11
16.53961693793712
 21
-52.79299123873242
 31
0.0
  0
LINE
  5
EA
330
1F
100
AcDbEntity
  8
0
 62
   250
100
AcDbLine
 10
34.13961693793713
 20
-2.59932425754255
 30
0.0
 11
34.13961693793713
 21
-52.79299123873242
 31
0.0
  0
LINE
  5
EB
330
1F
100
AcDbEntity
  8
0
 62
   250
100
AcDbLine
 10
94.63961693793713
 20
-2.59932425754255
 30
0.0
 11
94.63961693793713
 21
-52.79299123873242
 31
0.0
  0
LINE
  5
EC
330
1F
100
AcDbEntity
  8
0
 62
   250
100
AcDbLine
 10
34.13961693793718
 20
-2.59932425754255
 30
0.0
 11
34.13961693793718
 21
-52.79299123873242
 31
0.0
  0
LINE
  5
ED
330
1F
100
AcDbEntity
  8
0
 62
   250
100
AcDbLine
 10
94.63961693793713
 20
-51.08987117859574
 30
0.0
 11
78.44035743406484
 21
-51.08987117859575
 31
0.0
  0
LINE
  5
EE
330
1F
100
AcDbEntity
  8
0
 62
   250
100
AcDbLine
 10
50.33887644180956
 20
-51.08987117859575
 30
0.0
 11
34.13961693793718
 21
-51.08987117859574
 31
0.0
  0
LINE
  5
EF
330
1F
100
AcDbEntity
  8
0
 62
   250
100
AcDbLine
 10
112.6396169379372
 20
-2.59932425754255
 30
0.0
 11
112.6396169379372
 21
-52.79299123873242
 31
0.0
  0
LINE
  5
F0
330
1F
100
AcDbEntity
  8
0
 62
   250
100
AcDbLine
 10
109.6396169379371
 20
-2.59932425754255
 30
0.0
 11
109.6396169379371
 21
-52.79299123873242
 31
0.0
  0
LINE
  5
F1
330
1F
100
AcDbEntity
  8
0
 62
   250
100
AcDbLine
 10
94.63961693793713
 20
-2.59932425754255
 30
0.0
 11
94.63961693793713
 21
-52.79299123873242
 31
0.0
  0
LINE
  5
F2
330
1F
100
AcDbEntity
  8
0
 62
   250
100
AcDbLine
 10
109.6396169379371
 20
-2.59932425754255
 30
0.0
 11
109.6396169379371
 21
-52.79299123873242
 31
0.0
  0
LINE
  5
F3
330
1F
100
AcDbEntity
  8
0
 62
   250
100
AcDbLine
 10
-140.3603830620629
 20
-2.59932425754255
 30
0.0
 11
-140.3603830620629
 21
-87.73776936213707
 31
0.0
  0
LINE
  5
F4
330
1F
100
AcDbEntity
  8
0
 62
   250
100
AcDbLine
 10
112.6396169379367
 20
-2.59932425754255
 30
0.0
 11
112.6396169379367
 21
-87.73776936213707
 31
0.0
  0
LINE
  5
F5
330
1F
100
AcDbEntity
  8
0
 62
   250
100
AcDbLine
 10
-140.3603830620629
 20
-86.03464930200039
 30
0.0
 11
-29.82713362584449
 21
-86.03464930200039
 31
0.0
  0
LINE
  5
F6
330
1F
100
AcDbEntity
  8
0
 62
   250
100
AcDbLine
 10
2.106367501718339
 20
-86.03464930200039
 30
0.0
 11
112.6396169379367
 21
-86.03464930200039
 31
0.0
  0
POLYLINE
  5
F7
330
1F
100
AcDbEntity
  8
0
 62
   250
100
AcDbPolyFaceMesh
 66
     1
 10
0.0
 20
0.0
 30
0.0
 70
    64
 71
     3
 72
     1
  0
VERTEX
  5
F8
330
F7
100
AcDbEntity
  8
0
100
AcDbVertex
100
AcDbPolyFaceMeshVertex
 10
47.450446881855
 20
-25.16533240946139
 30
0.0
 70
   192
  0
VERTEX
  5
F9
330
F7
100
AcDbEntity
  8
0
100
AcDbVertex
100
AcDbPolyFaceMeshVertex
 10
42.34108670144495
 20
-23.46221234932471
 30
0.0
 70
   192
  0
VERTEX
  5
FA
330
F7
100
AcDbEntity
  8
0
100
AcDbVertex
100
AcDbPolyFaceMeshVertex
 10
47.450446881855
 20
-21.75909228918802
 30
0.0
 70
   192
  0
VERTEX
  5
FB
330
F7
100
AcDbEntity
  8
0
 62
   250
100
AcDbFaceRecord
 10
0.0
 20
0.0
 30
0.0
 70
   128
 71
     1
 72
     2
 73
     3
  0
SEQEND
  5
FC
330
F7
100
AcDbEntity
  8
0
 62
   250
  0
POLYLINE
  5
FD
330
1F
100
AcDbEntity
  8
0
 62
   250
100
AcDbPolyFaceMesh
 66
     1
 10
0.0
 20
0.0
 30
0.0
 70
    64
 71
     3
 72
     1
  0
VERTEX
  5
FE
330
FD
100
AcDbEntity
  8
0
100
AcDbVertex
100
AcDbPolyFaceMeshVertex
 10
52.32224635987379
 20
-23.46221234932471
 30
0.0
 70
   192
  0
VERTEX
  5
FF
330
FD
100
AcDbEntity
  8
0
100
AcDbVertex
100
AcDbPolyFaceMeshVertex
 10
47.21288617946373
 20
-25.16533240946139
 30
0.0
 70
   192
  0
VERTEX
  5
100
330
FD
100
AcDbEntity
  8
0
100
AcDbVertex
100
AcDbPolyFaceMeshVertex
 10
47.21288617946373
 20
-21.75909228918802
 30
0.0
 70
   192
  0
VERTEX
  5
101
330
FD
100
AcDbEntity
  8
0
 62
   250
100
AcDbFaceRecord
 10
0.0
 20
0.0
 30
0.0
 70
   128
 71
     1
 72
     2
 73
     3
  0
SEQEND
  5
102
330
FD
100
AcDbEntity
  8
0
 62
   250
  0
POLYLINE
  5
103
330
1F
100
AcDbEntity
  8
0
 62
   250
100
AcDbPolyFaceMesh
 66
     1
 10
0.0
 20
0.0
 30
0.0
 70
    64
 71
     3
 72
     1
  0
VERTEX
  5
104
330
103
100
AcDbEntity
  8
0
100
AcDbVertex
100
AcDbPolyFaceMeshVertex
 10
99.74897711834718
 20
-10.21311262808418
 30
0.0
 70
   192
  0
VERTEX
  5
105
330
103
100
AcDbEntity
  8
0
100
AcDbVertex
100
AcDbPolyFaceMeshVertex
 10
94.63961693793713
 20
-8.509992567947496
 30
0.0
 70
   192
  0
VERTEX
  5
106
330
103
100
AcDbEntity
  8
0
100
AcDbVertex
100
AcDbPolyFaceMeshVertex
 10
99.74897711834718
 20
-6.806872507810812
 30
0.0
 70
   192
  0
VERTEX
  5
107
330
103
100
AcDbEntity
  8
0
 62
   250
100
AcDbFaceRecord
 10
0.0
 20
0.0
 30
0.0
 70
   128
 71
     1
 72
     2
 73
     3
  0
SEQEND
  5
108
330
103
100
AcDbEntity
  8
0
 62
   250
  0
POLYLINE
  5
109
330
1F
100
AcDbEntity
  8
0
 62
   250
100
AcDbPolyFaceMesh
 66
     1
 10
0.0
 20
0.0
 30
0.0
 70
    64
 71
     3
 72
     1
  0
VERTEX
  5
10A
330
109
100
AcDbEntity
  8
0
100
AcDbVertex
100
AcDbPolyFaceMeshVertex
 10
104.6003793406665
 20
-8.509992567947496
 30
0.0
 70
   192
  0
VERTEX
  5
10B
330
109
100
AcDbEntity
  8
0
100
AcDbVertex
100
AcDbPolyFaceMeshVertex
 10
99.49101916025646
 20
-10.21311262808418
 30
0.0
 70
   192
  0
VERTEX
  5
10C
330
109
100
AcDbEntity
  8
0
100
AcDbVertex
100
AcDbPolyFaceMeshVertex
 10
99.49101916025646
 20
-6.806872507810812
 30
0.0
 70
   192
  0
VERTEX
  5
10D
330
109
100
AcDbEntity
  8
0
 62
   250
100
AcDbFaceRecord
 10
0.0
 20
0.0
 30
0.0
 70
   128
 71
     1
 72
     2
 73
     3
  0
SEQEND
  5
10E
330
109
100
AcDbEntity
  8
0
 62
   250
  0
POLYLINE
  5
10F
330
1F
100
AcDbEntity
  8
0
 62
   250
100
AcDbPolyFaceMesh
 66
     1
 10
0.0
 20
0.0
 30
0.0
 70
    64
 71
     3
 72
     1
  0
VERTEX
  5
110
330
10F
100
AcDbEntity
  8
0
100
AcDbVertex
100
AcDbPolyFaceMeshVertex
 10
68.43119526342181
 20
11.21315598300419
 30
0.0
 70
   192
  0
VERTEX
  5
111
330
10F
100
AcDbEntity
  8
0
100
AcDbVertex
100
AcDbPolyFaceMeshVertex
 10
66.72807520328513
 20
6.103795802594141
 30
0.0
 70
   192
  0
VERTEX
  5
112
330
10F
100
AcDbEntity
  8
0
100
AcDbVertex
100
AcDbPolyFaceMeshVertex
 10
65.02495514314845
 20
11.21315598300419
 30
0.0
 70
   192
  0
VERTEX
  5
113
330
10F
100
AcDbEntity
  8
0
 62
   250
100
AcDbFaceRecord
 10
0.0
 20
0.0
 30
0.0
 70
   128
 71
     1
 72
     2
 73
     3
  0
SEQEND
  5
114
330
10F
100
AcDbEntity
  8
0
 62
   250
  0
POLYLINE
  5
115
330
1F
100
AcDbEntity
  8
0
 62
   250
100
AcDbPolyFaceMesh
 66
     1
 10
0.0
 20
0.0
 30
0.0
 70
    64
 71
     3
 72
     1
  0
VERTEX
  5
116
330
115
100
AcDbEntity
  8
0
100
AcDbVertex
100
AcDbPolyFaceMeshVertex
 10
68.43119526342171
 20
60.99443562218408
 30
0.0
 70
   192
  0
VERTEX
  5
117
330
115
100
AcDbEntity
  8
0
100
AcDbVertex
100
AcDbPolyFaceMeshVertex
 10
65.02495514314835
 20
60.99443562218408
 30
0.0
 70
   192
  0
VERTEX
  5
118
330
115
100
AcDbEntity
  8
0
100
AcDbVertex
100
AcDbPolyFaceMeshVertex
 10
66.72807520328503
 20
66.10379580259412
 30
0.0
 70
   192
  0
VERTEX
  5
119
330
115
100
AcDbEntity
  8
0
 62
   250
100
AcDbFaceRecord
 10
0.0
 20
0.0
 30
0.0
 70
   128
 71
     1
 72
     2
 73
     3
  0
SEQEND
  5
11A
330
115
100
AcDbEntity
  8
0
 62
   250
  0
POLYLINE
  5
11B
330
1F
100
AcDbEntity
  8
0
 62
   250
100
AcDbPolyFaceMesh
 66
     1
 10
0.0
 20
0.0
 30
0.0
 70
    64
 71
     3
 72
     1
  0
VERTEX
  5
11C
330
11B
100
AcDbEntity
  8
0
100
AcDbVertex
100
AcDbPolyFaceMeshVertex
 10
129.2799268343718
 20
4.213155983004191
 30
0.0
 70
   192
  0
VERTEX
  5
11D
330
11B
100
AcDbEntity
  8
0
100
AcDbVertex
100
AcDbPolyFaceMeshVertex
 10
127.5768067742351
 20
-0.8962041974058603
 30
0.0
 70
   192
  0
VERTEX
  5
11E
330
11B
100
AcDbEntity
  8
0
100
AcDbVertex
100
AcDbPolyFaceMeshVertex
 10
125.8736867140985
 20
4.21315598300419
 30
0.0
 70
   192
  0
VERTEX
  5
11F
330
11B
100
AcDbEntity
  8
0
 62
   250
100
AcDbFaceRecord
 10
0.0
 20
0.0
 30
0.0
 70
   128
 71
     1
 72
     2
 73
     3
  0
SEQEND
  5
120
330
11B
100
AcDbEntity
  8
0
 62
   250
  0
POLYLINE
  5
121
330
1F
100
AcDbEntity
  8
0
 62
   250
100
AcDbPolyFaceMesh
 66
     1
 10
0.0
 20
0.0
 30
0.0
 70
    64
 71
     3
 72
     1
  0
VERTEX
  5
122
330
121
100
AcDbEntity
  8
0
100
AcDbVertex
100
AcDbPolyFaceMeshVertex
 10
129.2799268343718
 20
67.99816179004074
 30
0.0
 70
   192
  0
VERTEX
  5
123
330
121
100
AcDbEntity
  8
0
100
AcDbVertex
100
AcDbPolyFaceMeshVertex
 10
125.8736867140985
 20
67.99816179004074
 30
0.0
 70
   192
  0
VERTEX
  5
124
330
121
100
AcDbEntity
  8
0
100
AcDbVertex
100
AcDbPolyFaceMeshVertex
 10
127.5768067742351
 20
73.10752197045079
 30
0.0
 70
   192
  0
VERTEX
  5
125
330
121
100
AcDbEntity
  8
0
 62
   250
100
AcDbFaceRecord
 10
0.0
 20
0.0
 30
0.0
 70
   128
 71
     1
 72
     2
 73
     3
  0
SEQEND
  5
126
330
121
100
AcDbEntity
  8
0
 62
   250
  0
POLYLINE
  5
127
330
1F
100
AcDbEntity
  8
0
 62
   250
100
AcDbPolyFaceMesh
 66
     1
 10
0.0
 20
0.0
 30
0.0
 70
    64
 71
     3
 72
     1
  0
VERTEX
  5
128
330
127
100
AcDbEntity
  8
0
100
AcDbVertex
100
AcDbPolyFaceMeshVertex
 10
90.33961693793712
 20
80.79869087432064
 30
0.0
 70
   192
  0
VERTEX
  5
129
330
127
100
AcDbEntity
  8
0
100
AcDbVertex
100
AcDbPolyFaceMeshVertex
 10
85.23025675752707
 20
79.09557081418397
 30
0.0
 70
   192
  0
VERTEX
  5
12A
330
127
100
AcDbEntity
  8
0
100
AcDbVertex
100
AcDbPolyFaceMeshVertex
 10
85.23025675752707
 20
82.50181093445732
 30
0.0
 70
   192
  0
VERTEX
  5
12B
330
127
100
AcDbEntity
  8
0
 62
   250
100
AcDbFaceRecord
 10
0.0
 20
0.0
 30
0.0
 70
   128
 71
     1
 72
     2
 73
     3
  0
SEQEND
  5
12C
330
127
100
AcDbEntity
  8
0
 62
   250
  0
POLYLINE
  5
12D
330
1F
100
AcDbEntity
  8
0
 62
   250
100
AcDbPolyFaceMesh
 66
     1
 10
0.0
 20
0.0
 30
0.0
 70
    64
 71
     3
 72
     1
  0
VERTEX
  5
12E
330
12D
100
AcDbEntity
  8
0
100
AcDbVertex
100
AcDbPolyFaceMeshVertex
 10
57.43160654028383
 20
79.09557081418397
 30
0.0
 70
   192
  0
VERTEX
  5
12F
330
12D
100
AcDbEntity
  8
0
100
AcDbVertex
100
AcDbPolyFaceMeshVertex
 10
52.32224635987379
 20
80.79869087432064
 30
0.0
 70
   192
  0
VERTEX
  5
130
330
12D
100
AcDbEntity
  8
0
100
AcDbVertex
100
AcDbPolyFaceMeshVertex
 10
57.43160654028383
 20
82.50181093445732
 30
0.0
 70
   192
  0
VERTEX
  5
131
330
12D
100
AcDbEntity
  8
0
 62
   250
100
AcDbFaceRecord
 10
0.0
 20
0.0
 30
0.0
 70
   128
 71
     1
 72
     2
 73
     3
  0
SEQEND
  5
132
330
12D
100
AcDbEntity
  8
0
 62
   250
  0
POLYLINE
  5
133
330
1F
100
AcDbEntity
  8
0
 62
   250
100
AcDbPolyFaceMesh
 66
     1
 10
0.0
 20
0.0
 30
0.0
 70
    64
 71
     3
 72
     1
  0
VERTEX
  5
134
330
133
100
AcDbEntity
  8
0
100
AcDbVertex
100
AcDbPolyFaceMeshVertex
 10
-135.2510228816529
 20
-43.87971158867081
 30
0.0
 70
   192
  0
VERTEX
  5
135
330
133
100
AcDbEntity
  8
0
100
AcDbVertex
100
AcDbPolyFaceMeshVertex
 10
-140.3603830620629
 20
-42.17659152853413
 30
0.0
 70
   192
  0
VERTEX
  5
136
330
133
100
AcDbEntity
  8
0
100
AcDbVertex
100
AcDbPolyFaceMeshVertex
 10
-135.2510228816529
 20
-40.47347146839745
 30
0.0
 70
   192
  0
VERTEX
  5
137
330
133
100
AcDbEntity
  8
0
 62
   250
100
AcDbFaceRecord
 10
0.0
 20
0.0
 30
0.0
 70
   128
 71
     1
 72
     2
 73
     3
  0
SEQEND
  5
138
330
133
100
AcDbEntity
  8
0
 62
   250
  0
POLYLINE
  5
139
330
1F
100
AcDbEntity
  8
0
 62
   250
100
AcDbPolyFaceMesh
 66
     1
 10
0.0
 20
0.0
 30
0.0
 70
    64
 71
     3
 72
     1
  0
VERTEX
  5
13A
330
139
100
AcDbEntity
  8
0
100
AcDbVertex
100
AcDbPolyFaceMeshVertex
 10
-73.36038306206292
 20
-42.17659152853413
 30
0.0
 70
   192
  0
VERTEX
  5
13B
330
139
100
AcDbEntity
  8
0
100
AcDbVertex
100
AcDbPolyFaceMeshVertex
 10
-78.46974324247297
 20
-43.87971158867081
 30
0.0
 70
   192
  0
VERTEX
  5
13C
330
139
100
AcDbEntity
  8
0
100
AcDbVertex
100
AcDbPolyFaceMeshVertex
 10
-78.46974324247297
 20
-40.47347146839745
 30
0.0
 70
   192
  0
VERTEX
  5
13D
330
139
100
AcDbEntity
  8
0
 62
   250
100
AcDbFaceRecord
 10
0.0
 20
0.0
 30
0.0
 70
   128
 71
     1
 72
     2
 73
     3
  0
SEQEND
  5
13E
330
139
100
AcDbEntity
  8
0
 62
   250
  0
POLYLINE
  5
13F
330
1F
100
AcDbEntity
  8
0
 62
   250
100
AcDbPolyFaceMesh
 66
     1
 10
0.0
 20
0.0
 30
0.0
 70
    64
 71
     3
 72
     1
  0
VERTEX
  5
140
330
13F
100
AcDbEntity
  8
0
100
AcDbVertex
100
AcDbPolyFaceMeshVertex
 10
-54.96038306206291
 20
-42.17659152853413
 30
0.0
 70
   192
  0
VERTEX
  5
141
330
13F
100
AcDbEntity
  8
0
100
AcDbVertex
100
AcDbPolyFaceMeshVertex
 10
-60.06974324247295
 20
-43.87971158867081
 30
0.0
 70
   192
  0
VERTEX
  5
142
330
13F
100
AcDbEntity
  8
0
100
AcDbVertex
100
AcDbPolyFaceMeshVertex
 10
-60.06974324247295
 20
-40.47347146839745
 30
0.0
 70
   192
  0
VERTEX
  5
143
330
13F
100
AcDbEntity
  8
0
 62
   250
100
AcDbFaceRecord
 10
0.0
 20
0.0
 30
0.0
 70
   128
 71
     1
 72
     2
 73
     3
  0
SEQEND
  5
144
330
13F
100
AcDbEntity
  8
0
 62
   250
  0
POLYLINE
  5
145
330
1F
100
AcDbEntity
  8
0
 62
   250
100
AcDbPolyFaceMesh
 66
     1
 10
0.0
 20
0.0
 30
0.0
 70
    64
 71
     3
 72
     1
  0
VERTEX
  5
146
330
145
100
AcDbEntity
  8
0
100
AcDbVertex
100
AcDbPolyFaceMeshVertex
 10
-68.25102288165287
 20
-43.87971158867081
 30
0.0
 70
   192
  0
VERTEX
  5
147
330
145
100
AcDbEntity
  8
0
100
AcDbVertex
100
AcDbPolyFaceMeshVertex
 10
-73.36038306206292
 20
-42.17659152853413
 30
0.0
 70
   192
  0
VERTEX
  5
148
330
145
100
AcDbEntity
  8
0
100
AcDbVertex
100
AcDbPolyFaceMeshVertex
 10
-68.25102288165287
 20
-40.47347146839745
 30
0.0
 70
   192
  0
VERTEX
  5
149
330
145
100
AcDbEntity
  8
0
 62
   250
100
AcDbFaceRecord
 10
0.0
 20
0.0
 30
0.0
 70
   128
 71
     1
 72
     2
 73
     3
  0
SEQEND
  5
14A
330
145
100
AcDbEntity
  8
0
 62
   250
  0
POLYLINE
  5
14B
330
1F
100
AcDbEntity
  8
0
 62
   250
100
AcDbPolyFaceMesh
 66
     1
 10
0.0
 20
0.0
 30
0.0
 70
    64
 71
     3
 72
     1
  0
VERTEX
  5
14C
330
14B
100
AcDbEntity
  8
0
100
AcDbVertex
100
AcDbPolyFaceMeshVertex
 10
-0.4603830620628951
 20
-42.17659152853413
 30
0.0
 70
   192
  0
VERTEX
  5
14D
330
14B
100
AcDbEntity
  8
0
100
AcDbVertex
100
AcDbPolyFaceMeshVertex
 10
-5.569743242472946
 20
-43.87971158867081
 30
0.0
 70
   192
  0
VERTEX
  5
14E
330
14B
100
AcDbEntity
  8
0
100
AcDbVertex
100
AcDbPolyFaceMeshVertex
 10
-5.569743242472946
 20
-40.47347146839745
 30
0.0
 70
   192
  0
VERTEX
  5
14F
330
14B
100
AcDbEntity
  8
0
 62
   250
100
AcDbFaceRecord
 10
0.0
 20
0.0
 30
0.0
 70
   128
 71
     1
 72
     2
 73
     3
  0
SEQEND
  5
150
330
14B
100
AcDbEntity
  8
0
 62
   250
  0
POLYLINE
  5
151
330
1F
100
AcDbEntity
  8
0
 62
   250
100
AcDbPolyFaceMesh
 66
     1
 10
0.0
 20
0.0
 30
0.0
 70
    64
 71
     3
 72
     1
  0
VERTEX
  5
152
330
151
100
AcDbEntity
  8
0
100
AcDbVertex
100
AcDbPolyFaceMeshVertex
 10
-49.85102288165285
 20
-43.87971158867081
 30
0.0
 70
   192
  0
VERTEX
  5
153
330
151
100
AcDbEntity
  8
0
100
AcDbVertex
100
AcDbPolyFaceMeshVertex
 10
-54.96038306206291
 20
-42.17659152853413
 30
0.0
 70
   192
  0
VERTEX
  5
154
330
151
100
AcDbEntity
  8
0
100
AcDbVertex
100
AcDbPolyFaceMeshVertex
 10
-49.85102288165285
 20
-40.47347146839745
 30
0.0
 70
   192
  0
VERTEX
  5
155
330
151
100
AcDbEntity
  8
0
 62
   250
100
AcDbFaceRecord
 10
0.0
 20
0.0
 30
0.0
 70
   128
 71
     1
 72
     2
 73
     3
  0
SEQEND
  5
156
330
151
100
AcDbEntity
  8
0
 62
   250
  0
POLYLINE
  5
157
330
1F
100
AcDbEntity
  8
0
 62
   250
100
AcDbPolyFaceMesh
 66
     1
 10
0.0
 20
0.0
 30
0.0
 70
    64
 71
     3
 72
     1
  0
VERTEX
  5
158
330
157
100
AcDbEntity
  8
0
100
AcDbVertex
100
AcDbPolyFaceMeshVertex
 10
4.648977118347156
 20
-43.87971158867081
 30
0.0
 70
   192
  0
VERTEX
  5
159
330
157
100
AcDbEntity
  8
0
100
AcDbVertex
100
AcDbPolyFaceMeshVertex
 10
-0.4603830620628951
 20
-42.17659152853413
 30
0.0
 70
   192
  0
VERTEX
  5
15A
330
157
100
AcDbEntity
  8
0
100
AcDbVertex
100
AcDbPolyFaceMeshVertex
 10
4.648977118347156
 20
-40.47347146839745
 30
0.0
 70
   192
  0
VERTEX
  5
15B
330
157
100
AcDbEntity
  8
0
 62
   250
100
AcDbFaceRecord
 10
0.0
 20
0.0
 30
0.0
 70
   128
 71
     1
 72
     2
 73
     3
  0
SEQEND
  5
15C
330
157
100
AcDbEntity
  8
0
 62
   250
  0
POLYLINE
  5
15D
330
1F
100
AcDbEntity
  8
0
 62
   250
100
AcDbPolyFaceMesh
 66
     1
 10
0.0
 20
0.0
 30
0.0
 70
    64
 71
     3
 72
     1
  0
VERTEX
  5
15E
330
15D
100
AcDbEntity
  8
0
100
AcDbVertex
100
AcDbPolyFaceMeshVertex
 10
9.539616937937087
 20
-42.17659152853413
 30
0.0
 70
   192
  0
VERTEX
  5
15F
330
15D
100
AcDbEntity
  8
0
100
AcDbVertex
100
AcDbPolyFaceMeshVertex
 10
4.430256757527036
 20
-43.87971158867081
 30
0.0
 70
   192
  0
VERTEX
  5
160
330
15D
100
AcDbEntity
  8
0
100
AcDbVertex
100
AcDbPolyFaceMeshVertex
 10
4.430256757527036
 20
-40.47347146839745
 30
0.0
 70
   192
  0
VERTEX
  5
161
330
15D
100
AcDbEntity
  8
0
 62
   250
100
AcDbFaceRecord
 10
0.0
 20
0.0
 30
0.0
 70
   128
 71
     1
 72
     2
 73
     3
  0
SEQEND
  5
162
330
15D
100
AcDbEntity
  8
0
 62
   250
  0
POLYLINE
  5
163
330
1F
100
AcDbEntity
  8
0
 62
   250
100
AcDbPolyFaceMesh
 66
     1
 10
0.0
 20
0.0
 30
0.0
 70
    64
 71
     3
 72
     1
  0
VERTEX
  5
164
330
163
100
AcDbEntity
  8
0
100
AcDbVertex
100
AcDbPolyFaceMeshVertex
 10
-49.85102288165285
 20
-52.79299123873242
 30
0.0
 70
   192
  0
VERTEX
  5
165
330
163
100
AcDbEntity
  8
0
100
AcDbVertex
100
AcDbPolyFaceMeshVertex
 10
-54.96038306206291
 20
-51.08987117859574
 30
0.0
 70
   192
  0
VERTEX
  5
166
330
163
100
AcDbEntity
  8
0
100
AcDbVertex
100
AcDbPolyFaceMeshVertex
 10
-49.85102288165285
 20
-49.38675111845905
 30
0.0
 70
   192
  0
VERTEX
  5
167
330
163
100
AcDbEntity
  8
0
 62
   250
100
AcDbFaceRecord
 10
0.0
 20
0.0
 30
0.0
 70
   128
 71
     1
 72
     2
 73
     3
  0
SEQEND
  5
168
330
163
100
AcDbEntity
  8
0
 62
   250
  0
POLYLINE
  5
169
330
1F
100
AcDbEntity
  8
0
 62
   250
100
AcDbPolyFaceMesh
 66
     1
 10
0.0
 20
0.0
 30
0.0
 70
    64
 71
     3
 72
     1
  0
VERTEX
  5
16A
330
169
100
AcDbEntity
  8
0
100
AcDbVertex
100
AcDbPolyFaceMeshVertex
 10
16.53961693793712
 20
-51.08987117859574
 30
0.0
 70
   192
  0
VERTEX
  5
16B
330
169
100
AcDbEntity
  8
0
100
AcDbVertex
100
AcDbPolyFaceMeshVertex
 10
11.43025675752707
 20
-52.79299123873242
 30
0.0
 70
   192
  0
VERTEX
  5
16C
330
169
100
AcDbEntity
  8
0
100
AcDbVertex
100
AcDbPolyFaceMeshVertex
 10
11.43025675752707
 20
-49.38675111845905
 30
0.0
 70
   192
  0
VERTEX
  5
16D
330
169
100
AcDbEntity
  8
0
 62
   250
100
AcDbFaceRecord
 10
0.0
 20
0.0
 30
0.0
 70
   128
 71
     1
 72
     2
 73
     3
  0
SEQEND
  5
16E
330
169
100
AcDbEntity
  8
0
 62
   250
  0
POLYLINE
  5
16F
330
1F
100
AcDbEntity
  8
0
 62
   250
100
AcDbPolyFaceMesh
 66
     1
 10
0.0
 20
0.0
 30
0.0
 70
    64
 71
     3
 72
     1
  0
VERTEX
  5
170
330
16F
100
AcDbEntity
  8
0
100
AcDbVertex
100
AcDbPolyFaceMeshVertex
 10
21.64897711834717
 20
-52.79299123873242
 30
0.0
 70
   192
  0
VERTEX
  5
171
330
16F
100
AcDbEntity
  8
0
100
AcDbVertex
100
AcDbPolyFaceMeshVertex
 10
16.53961693793712
 20
-51.08987117859574
 30
0.0
 70
   192
  0
VERTEX
  5
172
330
16F
100
AcDbEntity
  8
0
100
AcDbVertex
100
AcDbPolyFaceMeshVertex
 10
21.64897711834717
 20
-49.38675111845905
 30
0.0
 70
   192
  0
VERTEX
  5
173
330
16F
100
AcDbEntity
  8
0
 62
   250
100
AcDbFaceRecord
 10
0.0
 20
0.0
 30
0.0
 70
   128
 71
     1
 72
     2
 73
     3
  0
SEQEND
  5
174
330
16F
100
AcDbEntity
  8
0
 62
   250
  0
POLYLINE
  5
175
330
1F
100
AcDbEntity
  8
0
 62
   250
100
AcDbPolyFaceMesh
 66
     1
 10
0.0
 20
0.0
 30
0.0
 70
    64
 71
     3
 72
     1
  0
VERTEX
  5
176
330
175
100
AcDbEntity
  8
0
100
AcDbVertex
100
AcDbPolyFaceMeshVertex
 10
34.13961693793713
 20
-51.08987117859574
 30
0.0
 70
   192
  0
VERTEX
  5
177
330
175
100
AcDbEntity
  8
0
100
AcDbVertex
100
AcDbPolyFaceMeshVertex
 10
29.03025675752708
 20
-52.79299123873242
 30
0.0
 70
   192
  0
VERTEX
  5
178
330
175
100
AcDbEntity
  8
0
100
AcDbVertex
100
AcDbPolyFaceMeshVertex
 10
29.03025675752708
 20
-49.38675111845905
 30
0.0
 70
   192
  0
VERTEX
  5
179
330
175
100
AcDbEntity
  8
0
 62
   250
100
AcDbFaceRecord
 10
0.0
 20
0.0
 30
0.0
 70
   128
 71
     1
 72
     2
 73
     3
  0
SEQEND
  5
17A
330
175
100
AcDbEntity
  8
0
 62
   250
  0
POLYLINE
  5
17B
330
1F
100
AcDbEntity
  8
0
 62
   250
100
AcDbPolyFaceMesh
 66
     1
 10
0.0
 20
0.0
 30
0.0
 70
    64
 71
     3
 72
     1
  0
VERTEX
  5
17C
330
17B
100
AcDbEntity
  8
0
100
AcDbVertex
100
AcDbPolyFaceMeshVertex
 10
94.63961693793713
 20
-51.08987117859574
 30
0.0
 70
   192
  0
VERTEX
  5
17D
330
17B
100
AcDbEntity
  8
0
100
AcDbVertex
100
AcDbPolyFaceMeshVertex
 10
89.53025675752708
 20
-52.79299123873242
 30
0.0
 70
   192
  0
VERTEX
  5
17E
330
17B
100
AcDbEntity
  8
0
100
AcDbVertex
100
AcDbPolyFaceMeshVertex
 10
89.53025675752708
 20
-49.38675111845905
 30
0.0
 70
   192
  0
VERTEX
  5
17F
330
17B
100
AcDbEntity
  8
0
 62
   250
100
AcDbFaceRecord
 10
0.0
 20
0.0
 30
0.0
 70
   128
 71
     1
 72
     2
 73
     3
  0
SEQEND
  5
180
330
17B
100
AcDbEntity
  8
0
 62
   250
  0
POLYLINE
  5
181
330
1F
100
AcDbEntity
  8
0
 62
   250
100
AcDbPolyFaceMesh
 66
     1
 10
0.0
 20
0.0
 30
0.0
 70
    64
 71
     3
 72
     1
  0
VERTEX
  5
182
330
181
100
AcDbEntity
  8
0
100
AcDbVertex
100
AcDbPolyFaceMeshVertex
 10
39.24897711834723
 20
-52.79299123873242
 30
0.0
 70
   192
  0
VERTEX
  5
183
330
181
100
AcDbEntity
  8
0
100
AcDbVertex
100
AcDbPolyFaceMeshVertex
 10
34.13961693793718
 20
-51.08987117859574
 30
0.0
 70
   192
  0
VERTEX
  5
184
330
181
100
AcDbEntity
  8
0
100
AcDbVertex
100
AcDbPolyFaceMeshVertex
 10
39.24897711834723
 20
-49.38675111845905
 30
0.0
 70
   192
  0
VERTEX
  5
185
330
181
100
AcDbEntity
  8
0
 62
   250
100
AcDbFaceRecord
 10
0.0
 20
0.0
 30
0.0
 70
   128
 71
     1
 72
     2
 73
     3
  0
SEQEND
  5
186
330
181
100
AcDbEntity
  8
0
 62
   250
  0
POLYLINE
  5
187
330
1F
100
AcDbEntity
  8
0
 62
   250
100
AcDbPolyFaceMesh
 66
     1
 10
0.0
 20
0.0
 30
0.0
 70
    64
 71
     3
 72
     1
  0
VERTEX
  5
188
330
187
100
AcDbEntity
  8
0
100
AcDbVertex
100
AcDbPolyFaceMeshVertex
 10
112.6396169379372
 20
-51.08987117859574
 30
0.0
 70
   192
  0
VERTEX
  5
189
330
187
100
AcDbEntity
  8
0
100
AcDbVertex
100
AcDbPolyFaceMeshVertex
 10
107.5302567575271
 20
-52.79299123873242
 30
0.0
 70
   192
  0
VERTEX
  5
18A
330
187
100
AcDbEntity
  8
0
100
AcDbVertex
100
AcDbPolyFaceMeshVertex
 10
107.5302567575271
 20
-49.38675111845905
 30
0.0
 70
   192
  0
VERTEX
  5
18B
330
187
100
AcDbEntity
  8
0
 62
   250
100
AcDbFaceRecord
 10
0.0
 20
0.0
 30
0.0
 70
   128
 71
     1
 72
     2
 73
     3
  0
SEQEND
  5
18C
330
187
100
AcDbEntity
  8
0
 62
   250
  0
POLYLINE
  5
18D
330
1F
100
AcDbEntity
  8
0
 62
   250
100
AcDbPolyFaceMesh
 66
     1
 10
0.0
 20
0.0
 30
0.0
 70
    64
 71
     3
 72
     1
  0
VERTEX
  5
18E
330
18D
100
AcDbEntity
  8
0
100
AcDbVertex
100
AcDbPolyFaceMeshVertex
 10
114.7489771183472
 20
-52.79299123873242
 30
0.0
 70
   192
  0
VERTEX
  5
18F
330
18D
100
AcDbEntity
  8
0
100
AcDbVertex
100
AcDbPolyFaceMeshVertex
 10
109.6396169379371
 20
-51.08987117859574
 30
0.0
 70
   192
  0
VERTEX
  5
190
330
18D
100
AcDbEntity
  8
0
100
AcDbVertex
100
AcDbPolyFaceMeshVertex
 10
114.7489771183472
 20
-49.38675111845905
 30
0.0
 70
   192
  0
VERTEX
  5
191
330
18D
100
AcDbEntity
  8
0
 62
   250
100
AcDbFaceRecord
 10
0.0
 20
0.0
 30
0.0
 70
   128
 71
     1
 72
     2
 73
     3
  0
SEQEND
  5
192
330
18D
100
AcDbEntity
  8
0
 62
   250
  0
POLYLINE
  5
193
330
1F
100
AcDbEntity
  8
0
 62
   250
100
AcDbPolyFaceMesh
 66
     1
 10
0.0
 20
0.0
 30
0.0
 70
    64
 71
     3
 72
     1
  0
VERTEX
  5
194
330
193
100
AcDbEntity
  8
0
100
AcDbVertex
100
AcDbPolyFaceMeshVertex
 10
99.74897711834718
 20
-52.79299123873242
 30
0.0
 70
   192
  0
VERTEX
  5
195
330
193
100
AcDbEntity
  8
0
100
AcDbVertex
100
AcDbPolyFaceMeshVertex
 10
94.63961693793713
 20
-51.08987117859574
 30
0.0
 70
   192
  0
VERTEX
  5
196
330
193
100
AcDbEntity
  8
0
100
AcDbVertex
100
AcDbPolyFaceMeshVertex
 10
99.74897711834718
 20
-49.38675111845905
 30
0.0
 70
   192
  0
VERTEX
  5
197
330
193
100
AcDbEntity
  8
0
 62
   250
100
AcDbFaceRecord
 10
0.0
 20
0.0
 30
0.0
 70
   128
 71
     1
 72
     2
 73
     3
  0
SEQEND
  5
198
330
193
100
AcDbEntity
  8
0
 62
   250
  0
POLYLINE
  5
199
330
1F
100
AcDbEntity
  8
0
 62
   250
100
AcDbPolyFaceMesh
 66
     1
 10
0.0
 20
0.0
 30
0.0
 70
    64
 71
     3
 72
     1
  0
VERTEX
  5
19A
330
199
100
AcDbEntity
  8
0
100
AcDbVertex
100
AcDbPolyFaceMeshVertex
 10
109.6396169379371
 20
-51.08987117859574
 30
0.0
 70
   192
  0
VERTEX
  5
19B
330
199
100
AcDbEntity
  8
0
100
AcDbVertex
100
AcDbPolyFaceMeshVertex
 10
104.5302567575271
 20
-52.79299123873242
 30
0.0
 70
   192
  0
VERTEX
  5
19C
330
199
100
AcDbEntity
  8
0
100
AcDbVertex
100
AcDbPolyFaceMeshVertex
 10
104.5302567575271
 20
-49.38675111845905
 30
0.0
 70
   192
  0
VERTEX
  5
19D
330
199
100
AcDbEntity
  8
0
 62
   250
100
AcDbFaceRecord
 10
0.0
 20
0.0
 30
0.0
 70
   128
 71
     1
 72
     2
 73
     3
  0
SEQEND
  5
19E
330
199
100
AcDbEntity
  8
0
 62
   250
  0
POLYLINE
  5
19F
330
1F
100
AcDbEntity
  8
0
 62
   250
100
AcDbPolyFaceMesh
 66
     1
 10
0.0
 20
0.0
 30
0.0
 70
    64
 71
     3
 72
     1
  0
VERTEX
  5
1A0
330
19F
100
AcDbEntity
  8
0
100
AcDbVertex
100
AcDbPolyFaceMeshVertex
 10
-135.2510228816529
 20
-87.73776936213707
 30
0.0
 70
   192
  0
VERTEX
  5
1A1
330
19F
100
AcDbEntity
  8
0
100
AcDbVertex
100
AcDbPolyFaceMeshVertex
 10
-140.3603830620629
 20
-86.03464930200039
 30
0.0
 70
   192
  0
VERTEX
  5
1A2
330
19F
100
AcDbEntity
  8
0
100
AcDbVertex
100
AcDbPolyFaceMeshVertex
 10
-135.2510228816529
 20
-84.3315292418637
 30
0.0
 70
   192
  0
VERTEX
  5
1A3
330
19F
100
AcDbEntity
  8
0
 62
   250
100
AcDbFaceRecord
 10
0.0
 20
0.0
 30
0.0
 70
   128
 71
     1
 72
     2
 73
     3
  0
SEQEND
  5
1A4
330
19F
100
AcDbEntity
  8
0
 62
   250
  0
POLYLINE
  5
1A5
330
1F
100
AcDbEntity
  8
0
 62
   250
100
AcDbPolyFaceMesh
 66
     1
 10
0.0
 20
0.0
 30
0.0
 70
    64
 71
     3
 72
     1
  0
VERTEX
  5
1A6
330
1A5
100
AcDbEntity
  8
0
100
AcDbVertex
100
AcDbPolyFaceMeshVertex
 10
112.6396169379367
 20
-86.03464930200039
 30
0.0
 70
   192
  0
VERTEX
  5
1A7
330
1A5
100
AcDbEntity
  8
0
100
AcDbVertex
100
AcDbPolyFaceMeshVertex
 10
107.5302567575267
 20
-87.73776936213707
 30
0.0
 70
   192
  0
VERTEX
  5
1A8
330
1A5
100
AcDbEntity
  8
0
100
AcDbVertex
100
AcDbPolyFaceMeshVertex
 10
107.5302567575267
 20
-84.3315292418637
 30
0.0
 70
   192
  0
VERTEX
  5
1A9
330
1A5
100
AcDbEntity
  8
0
 62
   250
100
AcDbFaceRecord
 10
0.0
 20
0.0
 30
0.0
 70
   128
 71
     1
 72
     2
 73
     3
  0
SEQEND
  5
1AA
330
1A5
100
AcDbEntity
  8
0
 62
   250
  0
MTEXT
  5
1AC
330
1F
100
AcDbEntity
  8
0
 62
   250
100
AcDbMText
 10
34.55826607963423
 20
-26.11176422811453
 30
0.0
 40
5.29910375757964
 41
0.0
 71
     7
 72
     1
  1
10.0mm
  7
TAHOMA
  0
MTEXT
  5
1AD
330
1F
100
AcDbEntity
  8
0
 62
   250
100
AcDbMText
 10
86.84659768827672
 20
-11.15954444673732
 30
0.0
 40
5.299103757579641
 41
0.0
 71
     7
 72
     1
  1
10.0mm
  7
TAHOMA
  0
MTEXT
  5
1AE
330
1F
100
AcDbEntity
  8
0
 62
   250
100
AcDbMText
 10
53.9546747522599
 20
33.45424392380431
 30
0.0
 40
5.29910375757964
 41
0.0
 71
     7
 72
     1
  1
60.0mm
  7
TAHOMA
  0
MTEXT
  5
1AF
330
1F
100
AcDbEntity
  8
0
 62
   250
100
AcDbMText
 10
114.80340632321
 20
33.45610700773263
 30
0.0
 40
5.29910375757964
 41
0.0
 71
     7
 72
     1
  1
74.0mm
  7
TAHOMA
  0
MTEXT
  5
1B0
330
1F
100
AcDbEntity
  8
0
 62
   250
100
AcDbMText
 10
58.55753119788034
 20
78.14913899553083
 30
0.0
 40
5.299103757579644
 41
0.0
 71
     7
 72
     1
  1
38.0mm
  7
TAHOMA
  0
MTEXT
  5
1B1
330
1F
100
AcDbEntity
  8
0
 62
   250
100
AcDbMText
 10
-119.6337835130881
 20
-44.82614340732395
 30
0.0
 40
5.29910375757964
 41
0.0
 71
     7
 72
     1
  1
67.0mm
  7
TAHOMA
  0
MTEXT
  5
1B2
330
1F
100
AcDbEntity
  8
0
 62
   250
100
AcDbMText
 10
-76.93378351308807
 20
-44.82614340732395
 30
0.0
 40
5.29910375757964
 41
0.0
 71
     7
 72
     1
  1
18.4mm
  7
TAHOMA
  0
MTEXT
  5
1B3
330
1F
100
AcDbEntity
  8
0
 62
   250
100
AcDbMText
 10
-40.48378351308806
 20
-44.82614340732395
 30
0.0
 40
5.29910375757964
 41
0.0
 71
     7
 72
     1
  1
54.5mm
  7
TAHOMA
  0
MTEXT
  5
1B4
330
1F
100
AcDbEntity
  8
0
 62
   250
100
AcDbMText
 10
-8.233783513088044
 20
-44.82614340732395
 30
0.0
 40
5.29910375757964
 41
0.0
 71
     7
 72
     1
  1
10.0mm
  7
TAHOMA
  0
MTEXT
  5
1B5
330
1F
100
AcDbEntity
  8
0
 62
   250
100
AcDbMText
 10
-31.98378351308801
 20
-53.73942305738556
 30
0.0
 40
5.29910375757964
 41
0.0
 71
     7
 72
     1
  1
71.5mm
  7
TAHOMA
  0
MTEXT
  5
1B6
330
1F
100
AcDbEntity
  8
0
 62
   250
100
AcDbMText
 10
12.56621648691196
 20
-53.73942305738556
 30
0.0
 40
5.29910375757964
 41
0.0
 71
     7
 72
     1
  1
17.6mm
  7
TAHOMA
  0
MTEXT
  5
1B7
330
1F
100
AcDbEntity
  8
0
 62
   250
100
AcDbMText
 10
51.61621648691202
 20
-53.73942305738556
 30
0.0
 40
5.29910375757964
 41
0.0
 71
     7
 72
     1
  1
60.5mm
  7
TAHOMA
  0
MTEXT
  5
1B8
330
1F
100
AcDbEntity
  8
0
 62
   250
100
AcDbMText
 10
100.2822265545658
 20
-53.73942305738556
 30
0.0
 40
5.29910375757964
 41
0.0
 71
     7
 72
     1
  1
3.0mm
  7
TAHOMA
  0
MTEXT
  5
1B9
330
1F
100
AcDbEntity
  8
0
 62
   250
100
AcDbMText
 10
89.36621648691205
 20
-53.73942305738556
 30
0.0
 40
5.29910375757964
 41
0.0
 71
     7
 72
     1
  1
15.0mm
  7
TAHOMA
  0
MTEXT
  5
1BA
330
1F
100
AcDbEntity
  8
0
 62
   250
100
AcDbMText
 10
-28.54979358074199
 20
-88.68420118079021
 30
0.0
 40
5.299103757579644
 41
0.0
 71
     7
 72
     1
  1
253.0mm
  7
TAHOMA
  0
ENDSEC
  0
SECTION
  2
OBJECTS
  0
DICTIONARY
  5
C
330
0
100
AcDbDictionary
  3
ACAD_GROUP
350
D
  3
ACAD_LAYOUT
350
1A
  3
ACAD_MATERIAL
350
43
  3
ACAD_MLEADERSTYLE
350
6B
  3
ACAD_MLINESTYLE
350
17
  3
ACAD_PLOTSETTINGS
350
19
  3
ACAD_SCALELIST
350
47
  3
ACAD_VISUALSTYLE
350
2A
  3
ACDBHEADERROUNDTRIPXREC
350
1BB
  3
ACDBVARIABLEDICTIONARY
350
1DC
  0
DICTIONARY
  5
1E3
330
8
100
AcDbDictionary
280
     1
  3
ACAD_XREC_ROUNDTRIP
360
1E4
  0
DICTIONARY
  5
D
102
{ACAD_REACTORS
330
C
102
}
330
C
100
AcDbDictionary
  0
DICTIONARY
  5
1A
102
{ACAD_REACTORS
330
C
102
}
330
C
100
AcDbDictionary
  0
DICTIONARY
  5
43
102
{ACAD_REACTORS
330
C
102
}
330
C
100
AcDbDictionary
  3
BYBLOCK
350
45
  3
BYLAYER
350
44
  3
GLOBAL
350
46
  0
DICTIONARY
  5
6B
102
{ACAD_REACTORS
330
C
102
}
330
C
100
AcDbDictionary
  3
STANDARD
350
6C
  0
DICTIONARY
  5
17
102
{ACAD_REACTORS
330
C
102
}
330
C
100
AcDbDictionary
  3
STANDARD
350
18
  0
DICTIONARY
  5
19
102
{ACAD_REACTORS
330
C
102
}
330
C
100
AcDbDictionary
  0
DICTIONARY
  5
47
102
{ACAD_REACTORS
330
C
102
}
330
C
100
AcDbDictionary
  3
A0
350
48
  3
A1
350
49
  3
A2
350
4A
  3
A3
350
4B
  3
A4
350
4C
  3
A5
350
4D
  3
A6
350
4E
  3
A7
350
4F
  3
A8
350
50
  3
A9
350
51
  3
B0
350
52
  3
B1
350
53
  3
B2
350
54
  3
B3
350
55
  3
B4
350
56
  3
B5
350
57
  3
B6
350
58
  3
B7
350
59
  3
B8
350
5A
  3
B9
350
5B
  3
C0
350
5C
  3
C1
350
5D
  3
C2
350
5E
  3
C3
350
5F
  3
C4
350
60
  3
C5
350
61
  3
C6
350
62
  3
C7
350
63
  3
C8
350
64
  3
C9
350
65
  3
D0
350
66
  3
D1
350
67
  3
D2
350
68
  0
DICTIONARY
  5
2A
102
{ACAD_REACTORS
330
C
102
}
330
C
100
AcDbDictionary
  3
2DWIREFRAME
350
2F
  3
BASIC
350
32
  3
BRIGHTEN
350
36
  3
COLORCHANGE
350
3A
  3
CONCEPTUAL
350
34
  3
DIM
350
35
  3
EDGECOLOROFF
350
3D
  3
FACEPATTERN
350
39
  3
FLAT
350
2B
  3
FLATWITHEDGES
350
2C
  3
GOURAUD
350
2D
  3
GOURAUDWITHEDGES
350
2E
  3
HIDDEN
350
31
  3
JITTEROFF
350
3B
  3
LINEPATTERN
350
38
  3
OVERHANGOFF
350
3C
  3
REALISTIC
350
33
  3
SHADED
350
42
  3
SHADED_WITH_EDGES
350
41
  3
SHADES_OF_GRAY
350
3E
  3
SKETCHY
350
3F
  3
THICKEN
350
37
  3
WIREFRAME
350
30
  3
X-RAY
350
40
  0
DICTIONARY
  5
1BB
102
{ACAD_REACTORS
330
C
102
}
330
C
100
AcDbDictionary
  3
CEPSNID
350
1C5
  3
CEPSNTYPE
350
1C4
  3
DIMSTYLEDATA
350
1DB
  3
FINGERPRINTGUID
350
1C6
  3
HYPERLINKBASE
350
1BE
  3
INSUNITS
350
1C3
  3
LAYOUTDICT
350
1C0
  3
LWETCUNION
350
1C2
  3
PLOTSETDICT
350
1C1
  3
PSVPSCALE
350
1C8
  3
PUCSBASE
350
1CB
  3
PUCSORGBACK
350
1D1
  3
PUCSORGBOTTOM
350
1CD
  3
PUCSORGFRONT
350
1D0
  3
PUCSORGLEFT
350
1CE
  3
PUCSORGRIGHT
350
1CF
  3
PUCSORGTOP
350
1CC
  3
PUCSORTHOREF
350
1C9
  3
PUCSORTHOVIEW
350
1CA
  3
STYLESHEET
350
1BF
  3
TSTACKALIGN
350
1BC
  3
TSTACKSIZE
350
1BD
  3
UCSBASE
350
1D4
  3
UCSORGBACK
350
1DA
  3
UCSORGBOTTOM
350
1D6
  3
UCSORGFRONT
350
1D9
  3
UCSORGLEFT
350
1D7
  3
UCSORGRIGHT
350
1D8
  3
UCSORGTOP
350
1D5
  3
UCSORTHOREF
350
1D2
  3
UCSORTHOVIEW
350
1D3
  3
VERSIONGUID
350
1C7
  0
DICTIONARY
  5
1DC
102
{ACAD_REACTORS
330
C
102
}
330
C
100
AcDbDictionary
  3
CANNOSCALE
350
1E5
  3
CMLEADERSTYLE
350
1DE
  3
CTABLESTYLE
350
1DD
  3
DIMASSOC
350
1E1
  3
HIDETEXT
350
1E2
  3
MSLTSCALE
350
1E6
  0
XRECORD
  5
1E4
102
{ACAD_REACTORS
330
1E3
102
}
330
1E3
100
AcDbXrecord
102
VTR_0.000_0.000_1.000_1.000_VISUALSTYLE
340
2F
102
VTR_0.000_0.000_1.000_1.000_GRIDDISPLAY
 70
     3
102
VTR_0.000_0.000_1.000_1.000_GRIDMAJOR
 70
     5
102
VTR_0.000_0.000_1.000_1.000_DEFAULTLIGHTING
280
     1
102
VTR_0.000_0.000_1.000_1.000_DEFAULTLIGHTINGTYPE
 70
     1
102
VTR_0.000_0.000_1.000_1.000_BRIGHTNESS
141
0.0
102
VTR_0.000_0.000_1.000_1.000_CONTRAST
142
0.0
  0
MATERIAL
  5
45
102
{ACAD_REACTORS
330
43
102
}
102
{ACAD_XDICTIONARY
360
1E9
102
}
330
43
100
AcDbMaterial
  1
BYBLOCK
  0
MATERIAL
  5
44
102
{ACAD_REACTORS
330
43
102
}
102
{ACAD_XDICTIONARY
360
1E7
102
}
330
43
100
AcDbMaterial
  1
BYLAYER
  0
MATERIAL
  5
46
102
{ACAD_REACTORS
330
43
102
}
102
{ACAD_XDICTIONARY
360
1EB
102
}
330
43
100
AcDbMaterial
  1
GLOBAL
  0
ACAD_PROXY_OBJECT
  5
6C
102
{ACAD_REACTORS
330
6B
102
}
330
6B
100
AcDbProxyObject
 90
      499
 91
      505
 93
      610
310
40901902A4063FBFFFFFE056BD1B81E855B9FC0AD7A3703D0AD73F4214DD185B99185C9900AD7A3703D0AC73F90141901A02B5E8DC0F42B1CFC02B5E8DC0F42B1CFE5764000000000000300FC0
340
14
340
0
340
11
340
0
 94
        0
1001
ACAD_MLEADERVER
1070
     2
  0
MLINESTYLE
  5
18
102
{ACAD_REACTORS
330
17
102
}
330
17
100
AcDbMlineStyle
  2
Standard
 70
     0
  3

 62
   256
 51
90.0
 52
90.0
 71
     2
 49
0.5
 62
   256
  6
BYLAYER
 49
-0.5
 62
   256
  6
BYLAYER
  0
ACAD_PROXY_OBJECT
  5
48
102
{ACAD_REACTORS
330
47
102
}
330
47
100
AcDbProxyObject
 90
      499
 91
      503
 93
       41
310
903313A31580
  0
ACAD_PROXY_OBJECT
  5
49
102
{ACAD_REACTORS
330
47
102
}
330
47
100
AcDbProxyObject
 90
      499
 91
      503
 93
      105
310
903313A324000000000000004000
  0
ACAD_PROXY_OBJECT
  5
4A
102
{ACAD_REACTORS
330
47
102
}
330
47
100
AcDbProxyObject
 90
      499
 91
      503
 93
      105
310
903313A344000000000000104000
  0
ACAD_PROXY_OBJECT
  5
4B
102
{ACAD_REACTORS
330
47
102
}
330
47
100
AcDbProxyObject
 90
      499
 91
      503
 93
      105
310
903313A354000000000000144000
  0
ACAD_PROXY_OBJECT
  5
4C
102
{ACAD_REACTORS
330
47
102
}
330
47
100
AcDbProxyObject
 90
      499
 91
      503
 93
      105
310
903313A384000000000000204000
  0
ACAD_PROXY_OBJECT
  5
4D
102
{ACAD_REACTORS
330
47
102
}
330
47
100
AcDbProxyObject
 90
      499
 91
      503
 93
      113
310
904313A31304000000000000244000
  0
ACAD_PROXY_OBJECT
  5
4E
102
{ACAD_REACTORS
330
47
102
}
330
47
100
AcDbProxyObject
 90
      499
 91
      503
 93
      113
310
904313A31364000000000000304000
  0
ACAD_PROXY_OBJECT
  5
4F
102
{ACAD_REACTORS
330
47
102
}
330
47
100
AcDbProxyObject
 90
      499
 91
      503
 93
      113
310
904313A32304000000000000344000
  0
ACAD_PROXY_OBJECT
  5
50
102
{ACAD_REACTORS
330
47
102
}
330
47
100
AcDbProxyObject
 90
      499
 91
      503
 93
      113
310
904313A333040000000000003E4000
  0
ACAD_PROXY_OBJECT
  5
51
102
{ACAD_REACTORS
330
47
102
}
330
47
100
AcDbProxyObject
 90
      499
 91
      503
 93
      113
310
904313A34304000000000000444000
  0
ACAD_PROXY_OBJECT
  5
52
102
{ACAD_REACTORS
330
47
102
}
330
47
100
AcDbProxyObject
 90
      499
 91
      503
 93
      113
310
904313A35304000000000000494000
  0
ACAD_PROXY_OBJECT
  5
53
102
{ACAD_REACTORS
330
47
102
}
330
47
100
AcDbProxyObject
 90
      499
 91
      503
 93
      121
310
905313A3130304000000000000594000
  0
ACAD_PROXY_OBJECT
  5
54
102
{ACAD_REACTORS
330
47
102
}
330
47
100
AcDbProxyObject
 90
      499
 91
      503
 93
      105
310
903323A310000000000000010100
  0
ACAD_PROXY_OBJECT
  5
55
102
{ACAD_REACTORS
330
47
102
}
330
47
100
AcDbProxyObject
 90
      499
 91
      503
 93
      105
310
903343A310000000000000410100
  0
ACAD_PROXY_OBJECT
  5
56
102
{ACAD_REACTORS
330
47
102
}
330
47
100
AcDbProxyObject
 90
      499
 91
      503
 93
      105
310
903383A310000000000000810100
  0
ACAD_PROXY_OBJECT
  5
57
102
{ACAD_REACTORS
330
47
102
}
330
47
100
AcDbProxyObject
 90
      499
 91
      503
 93
      113
310
90431303A310000000000000910100
  0
ACAD_PROXY_OBJECT
  5
58
102
{ACAD_REACTORS
330
47
102
}
330
47
100
AcDbProxyObject
 90
      499
 91
      503
 93
      121
310
9053130303A310000000000001650100
  0
ACAD_PROXY_OBJECT
  5
59
102
{ACAD_REACTORS
330
47
102
}
330
47
100
AcDbProxyObject
 90
      499
 91
      503
 93
      257
310
90E312F31323822203D2031272D3022000000000000200FC000000000000284000
  0
ACAD_PROXY_OBJECT
  5
5A
102
{ACAD_REACTORS
330
47
102
}
330
47
100
AcDbProxyObject
 90
      499
 91
      503
 93
      249
310
90D312F363422203D2031272D3022000000000000240FC000000000000284000
  0
ACAD_PROXY_OBJECT
  5
5B
102
{ACAD_REACTORS
330
47
102
}
330
47
100
AcDbProxyObject
 90
      499
 91
      503
 93
      249
310
90D312F333222203D2031272D3022000000000000280FC000000000000284000
  0
ACAD_PROXY_OBJECT
  5
5C
102
{ACAD_REACTORS
330
47
102
}
330
47
100
AcDbProxyObject
 90
      499
 91
      503
 93
      249
310
90D312F313622203D2031272D30220000000000002C0FC000000000000284000
  0
ACAD_PROXY_OBJECT
  5
5D
102
{ACAD_REACTORS
330
47
102
}
330
47
100
AcDbProxyObject
 90
      499
 91
      503
 93
      249
310
90D332F333222203D2031272D30220000000000002E0FC000000000000284000
  0
ACAD_PROXY_OBJECT
  5
5E
102
{ACAD_REACTORS
330
47
102
}
330
47
100
AcDbProxyObject
 90
      499
 91
      503
 93
      241
310
90C312F3822203D2031272D3022000000000000300FC000000000000284000
  0
ACAD_PROXY_OBJECT
  5
5F
102
{ACAD_REACTORS
330
47
102
}
330
47
100
AcDbProxyObject
 90
      499
 91
      503
 93
      249
310
90D332F313622203D2031272D3022000000000000320FC000000000000284000
  0
ACAD_PROXY_OBJECT
  5
60
102
{ACAD_REACTORS
330
47
102
}
330
47
100
AcDbProxyObject
 90
      499
 91
      503
 93
      241
310
90C312F3422203D2031272D3022000000000000340FC000000000000284000
  0
ACAD_PROXY_OBJECT
  5
61
102
{ACAD_REACTORS
330
47
102
}
330
47
100
AcDbProxyObject
 90
      499
 91
      503
 93
      241
310
90C332F3822203D2031272D3022000000000000360FC000000000000284000
  0
ACAD_PROXY_OBJECT
  5
62
102
{ACAD_REACTORS
330
47
102
}
330
47
100
AcDbProxyObject
 90
      499
 91
      503
 93
      241
310
90C312F3222203D2031272D3022000000000000380FC000000000000284000
  0
ACAD_PROXY_OBJECT
  5
63
102
{ACAD_REACTORS
330
47
102
}
330
47
100
AcDbProxyObject
 90
      499
 91
      503
 93
      241
310
90C332F3422203D2031272D30220000000000003A0FC000000000000284000
  0
ACAD_PROXY_OBJECT
  5
64
102
{ACAD_REACTORS
330
47
102
}
330
47
100
AcDbProxyObject
 90
      499
 91
      503
 93
      161
310
90A3122203D2031272D30224000000000000284000
  0
ACAD_PROXY_OBJECT
  5
65
102
{ACAD_REACTORS
330
47
102
}
330
47
100
AcDbProxyObject
 90
      499
 91
      503
 93
      257
310
90E312D312F3222203D2031272D30220000000000003E0FC000000000000284000
  0
ACAD_PROXY_OBJECT
  5
66
102
{ACAD_REACTORS
330
47
102
}
330
47
100
AcDbProxyObject
 90
      499
 91
      503
 93
      225
310
90A3322203D2031272D302200000000000002100000000000000284000
  0
ACAD_PROXY_OBJECT
  5
67
102
{ACAD_REACTORS
330
47
102
}
330
47
100
AcDbProxyObject
 90
      499
 91
      503
 93
      225
310
90A3622203D2031272D302200000000000006100000000000000284000
  0
ACAD_PROXY_OBJECT
  5
68
102
{ACAD_REACTORS
330
47
102
}
330
47
100
AcDbProxyObject
 90
      499
 91
      503
 93
      249
310
90D31272D3022203D2031272D30220000000000000A100000000000000284000
  0
ACAD_PROXY_OBJECT
  5
2F
102
{ACAD_REACTORS
330
2A
102
}
330
2A
100
AcDbProxyObject
 90
      499
 91
      501
 93
      436
310
42CC9915DA5C99599C985B595049028333333333333E33F0000000000000F90107901411070040501600405405064090741402480A0340
1001
ACAD
1000
AcDbSavedByObjectVersion
1070
     0
  0
ACAD_PROXY_OBJECT
  5
32
102
{ACAD_REACTORS
330
2A
102
}
330
2A
100
AcDbProxyObject
 90
      499
 91
      501
 93
      388
310
4150985CDA58D07406404333333333333E33F0000000000000F90107A41107004050150841D405064090741402480A0350
1001
ACAD
1000
AcDbSavedByObjectVersion
1070
     0
  0
ACAD_PROXY_OBJECT
  5
36
102
{ACAD_REACTORS
330
2A
102
}
330
2A
100
AcDbProxyObject
 90
      499
 91
      501
 93
      428
310
42109C9A59DA1D195B90C409028333333333333E33F0000000000000F9010790141107004050150841D405064090741402480A029950
1001
ACAD
1000
AcDbSavedByObjectVersion
1070
     0
  0
ACAD_PROXY_OBJECT
  5
3A
102
{ACAD_REACTORS
330
2A
102
}
330
2A
100
AcDbProxyObject
 90
      499
 91
      501
 93
      452
310
42D0DBDB1BDC90DA185B99D95104090240C333333333333E33F0000000000000F90108901411070040501508421405064090741402480A0350
1001
ACAD
1000
AcDbSavedByObjectVersion
1070
     0
  0
ACAD_PROXY_OBJECT
  5
34
102
{ACAD_REACTORS
330
2A
102
}
330
2A
100
AcDbProxyObject
 90
      499
 91
      501
 93
      500
310
4290DBDB98D95C1D1D585B10940D028333333333333E33F0000000000000F90107902409070040501000000000018199010841D405064090740C02480A0340
1001
ACAD
1000
AcDbSavedByObjectVersion
1070
     0
  0
ACAD_PROXY_OBJECT
  5
35
102
{ACAD_REACTORS
330
2A
102
}
330
2A
100
AcDbProxyObject
 90
      499
 91
      501
 93
      412
310
40D11A5B50B409028333333333333E33F0000000000000F9010790141107004050150841D405064090741402480A02677FFFFFD0
1001
ACAD
1000
AcDbSavedByObjectVersion
1070
     0
  0
ACAD_PROXY_OBJECT
  5
3D
102
{ACAD_REACTORS
330
2A
102
}
330
2A
100
AcDbProxyObject
 90
      499
 91
      501
 93
      452
310
43115919D950DBDB1BDC93D999916409028333333333333E33F0000000000000F9010790141107004050150841D405064090741402480A0350
1001
ACAD
1000
AcDbSavedByObjectVersion
1070
     0
  0
ACAD_PROXY_OBJECT
  5
39
102
{ACAD_REACTORS
330
2A
102
}
330
2A
100
AcDbProxyObject
 90
      499
 91
      501
 93
      444
310
42D19858D95C185D1D195C9B90F409028333333333333E33F0000000000000F9010790141107004050150841D405064090741402480A0350
1001
ACAD
1000
AcDbSavedByObjectVersion
1070
     0
  0
ACAD_PROXY_OBJECT
  5
2B
102
{ACAD_REACTORS
330
2A
102
}
330
2A
100
AcDbProxyObject
 90
      499
 91
      501
 93
      380
310
41119B185D240901404333333333333E33F0000000000000F9010740A907004050150841D405064090741402480A1B50
1001
ACAD
1000
AcDbSavedByObjectVersion
1070
     0
  0
ACAD_PROXY_OBJECT
  5
2C
102
{ACAD_REACTORS
330
2A
102
}
330
2A
100
AcDbProxyObject
 90
      499
 91
      501
 93
      468
310
43519B185D15DA5D1A115919D95CD0140901404333333333333E33F0000000000000F90107409019070040501600405405064090741402480A1B50
1001
ACAD
1000
AcDbSavedByObjectVersion
1070
     0
  0
ACAD_PROXY_OBJECT
  5
2D
102
{ACAD_REACTORS
330
2A
102
}
330
2A
100
AcDbProxyObject
 90
      499
 91
      501
 93
      404
310
41D1DBDD5C985D5910240902404333333333333E33F0000000000000F9010740A9070040501641D405064090741402480A1B50
1001
ACAD
1000
AcDbSavedByObjectVersion
1070
     0
  0
ACAD_PROXY_OBJECT
  5
2E
102
{ACAD_REACTORS
330
2A
102
}
330
2A
100
AcDbProxyObject
 90
      499
 91
      501
 93
      492
310
4411DBDD5C985D5915DA5D1A115919D95CD0340902404333333333333E33F0000000000000F90107409019070040501600405405064090741402480A1B50
1001
ACAD
1000
AcDbSavedByObjectVersion
1070
     0
  0
ACAD_PROXY_OBJECT
  5
31
102
{ACAD_REACTORS
330
2A
102
}
330
2A
100
AcDbProxyObject
 90
      499
 91
      501
 93
      476
310
41921A5919195B90640502408333333333333E33F0000000000000F901079024090700405020000000000001110200405405064090740C02480A0340
1001
ACAD
1000
AcDbSavedByObjectVersion
1070
     0
  0
ACAD_PROXY_OBJECT
  5
3B
102
{ACAD_REACTORS
330
2A
102
}
330
2A
100
AcDbProxyObject
 90
      499
 91
      501
 93
      428
310
42529A5D1D195C93D999914409028333333333333E33F0000000000000F9010790141107004050150A41D405064090741402480A0350
1001
ACAD
1000
AcDbSavedByObjectVersion
1070
     0
  0
ACAD_PROXY_OBJECT
  5
38
102
{ACAD_REACTORS
330
2A
102
}
330
2A
100
AcDbProxyObject
 90
      499
 91
      501
 93
      444
310
42D31A5B995C185D1D195C9B90E409028333333333333E33F0000000000000F9010790141107004050750841D405064090741402483A0350
1001
ACAD
1000
AcDbSavedByObjectVersion
1070
     0
  0
ACAD_PROXY_OBJECT
  5
3C
102
{ACAD_REACTORS
330
2A
102
}
330
2A
100
AcDbProxyObject
 90
      499
 91
      501
 93
      444
310
42D3DD995C9A185B99D3D999915409028333333333333E33F0000000000000F9010790141107004050150941D405064090741402480A0350
1001
ACAD
1000
AcDbSavedByObjectVersion
1070
     0
  0
ACAD_PROXY_OBJECT
  5
33
102
{ACAD_REACTORS
330
2A
102
}
330
2A
100
AcDbProxyObject
 90
      499
 91
      501
 93
      428
310
425499585B1A5CDD1A58D08409038333333333333E33F0000000000000F9010740A907004050150800405405064090740C02480A1B40
1001
ACAD
1000
AcDbSavedByObjectVersion
1070
     0
  0
ACAD_PROXY_OBJECT
  5
42
102
{ACAD_REACTORS
330
2A
102
}
330
2A
100
AcDbProxyObject
 90
      499
 91
      501
 93
      420
310
4194DA1859195911B40902404333333333333E33F0000000000000F9010740A41107004050150800405405064090840C02480A0B40
1001
ACAD
1000
AcDbSavedByObjectVersion
1070
     0
  0
ACAD_PROXY_OBJECT
  5
41
102
{ACAD_REACTORS
330
2A
102
}
330
2A
100
AcDbProxyObject
 90
      499
 91
      501
 93
      516
310
4454DA18591959081DDA5D1A08195919D95CD1A40902404333333333333E33F0000000000000F901074090142907004050250800405405064090740C02480A0B40
1001
ACAD
1000
AcDbSavedByObjectVersion
1070
     0
  0
ACAD_PROXY_OBJECT
  5
3E
102
{ACAD_REACTORS
330
2A
102
}
330
2A
100
AcDbProxyObject
 90
      499
 91
      501
 93
      532
310
4394DA1859195CC81BD98811DC985E5174090240C333333333333E33F0000000000000F901079024090741D01000000000000111010841D405064090740C02480A0340
1001
ACAD
1000
AcDbSavedByObjectVersion
1070
     0
  0
ACAD_PROXY_OBJECT
  5
3F
102
{ACAD_REACTORS
330
2A
102
}
330
2A
100
AcDbProxyObject
 90
      499
 91
      501
 93
      476
310
41D4DAD95D18DA1E51840502408333333333333E33F0000000000000F901079024090741D01000000000000111010B41D405064090741802480A0340
1001
ACAD
1000
AcDbSavedByObjectVersion
1070
     0
  0
ACAD_PROXY_OBJECT
  5
37
102
{ACAD_REACTORS
330
2A
102
}
330
2A
100
AcDbProxyObject
 90
      499
 91
      501
 93
      412
310
41D51A1A58DAD95B90D409028333333333333E33F0000000000000F9010790141107004050150C41D405064090741402480A0350
1001
ACAD
1000
AcDbSavedByObjectVersion
1070
     0
  0
ACAD_PROXY_OBJECT
  5
30
102
{ACAD_REACTORS
330
2A
102
}
330
2A
100
AcDbProxyObject
 90
      499
 91
      501
 93
      420
310
4255DA5C99599C985B595059028333333333333E33F0000000000000F90107901411070040501600405405064090740C02480A0340
1001
ACAD
1000
AcDbSavedByObjectVersion
1070
     0
  0
ACAD_PROXY_OBJECT
  5
40
102
{ACAD_REACTORS
330
2A
102
}
330
2A
100
AcDbProxyObject
 90
      499
 91
      501
 93
      404
310
41560B54985E51940902404000000000000E03F0000000000000F9010740501907004050150841D405064090740C02480A1B40
1001
ACAD
1000
AcDbSavedByObjectVersion
1070
     0
  0
XRECORD
  5
1C5
102
{ACAD_REACTORS
330
1BB
102
}
330
1BB
100
AcDbXrecord
340
0
  0
XRECORD
  5
1C4
102
{ACAD_REACTORS
330
1BB
102
}
330
1BB
100
AcDbXrecord
 90
        0
  0
XRECORD
  5
1DB
102
{ACAD_REACTORS
330
1BB
102
}
330
1BB
100
AcDbXrecord
1000
DSTYLE
1002
{
1070
   171
 70
     2
1070
   143
 40
25.4
1070
   274
 70
     2
1070
    41
 40
0.18
1070
   141
 40
0.09
1070
   271
 70
     4
1070
    43
 40
0.38
1070
   278
 70
    46
1070
    44
 40
0.18
1070
    42
 40
0.0625
1070
   147
 40
0.09
1070
    77
 70
     0
1070
   272
 70
     4
1070
    73
 70
     1
1070
   172
 70
     0
1070
    74
 70
     1
1070
   283
 70
     1
1070
   340
340
11
1070
   140
 40
0.18
1070
   284
 70
     0
1070
    78
 70
     0
1002
}
  0
XRECORD
  5
1C6
102
{ACAD_REACTORS
330
1BB
102
}
330
1BB
100
AcDbXrecord
  1
{DE2592A0-D067-480A-ADEA-A14F0EC3A36B}
  0
XRECORD
  5
1BE
102
{ACAD_REACTORS
330
1BB
102
}
330
1BB
100
AcDbXrecord
  1

  0
XRECORD
  5
1C3
102
{ACAD_REACTORS
330
1BB
102
}
330
1BB
100
AcDbXrecord
 90
        4
  0
XRECORD
  5
1C0
102
{ACAD_REACTORS
330
1BB
102
}
330
1BB
100
AcDbXrecord
340
1A
  0
XRECORD
  5
1C2
102
{ACAD_REACTORS
330
1BB
102
}
330
1BB
100
AcDbXrecord
 90
    10781
  0
XRECORD
  5
1C1
102
{ACAD_REACTORS
330
1BB
102
}
330
1BB
100
AcDbXrecord
340
19
  0
XRECORD
  5
1C8
102
{ACAD_REACTORS
330
1BB
102
}
330
1BB
100
AcDbXrecord
 40
0.0
  0
XRECORD
  5
1CB
102
{ACAD_REACTORS
330
1BB
102
}
330
1BB
100
AcDbXrecord
340
0
  0
XRECORD
  5
1D1
102
{ACAD_REACTORS
330
1BB
102
}
330
1BB
100
AcDbXrecord
 10
0.0
 20
0.0
 30
0.0
  0
XRECORD
  5
1CD
102
{ACAD_REACTORS
330
1BB
102
}
330
1BB
100
AcDbXrecord
 10
0.0
 20
0.0
 30
0.0
  0
XRECORD
  5
1D0
102
{ACAD_REACTORS
330
1BB
102
}
330
1BB
100
AcDbXrecord
 10
0.0
 20
0.0
 30
0.0
  0
XRECORD
  5
1CE
102
{ACAD_REACTORS
330
1BB
102
}
330
1BB
100
AcDbXrecord
 10
0.0
 20
0.0
 30
0.0
  0
XRECORD
  5
1CF
102
{ACAD_REACTORS
330
1BB
102
}
330
1BB
100
AcDbXrecord
 10
0.0
 20
0.0
 30
0.0
  0
XRECORD
  5
1CC
102
{ACAD_REACTORS
330
1BB
102
}
330
1BB
100
AcDbXrecord
 10
0.0
 20
0.0
 30
0.0
  0
XRECORD
  5
1C9
102
{ACAD_REACTORS
330
1BB
102
}
330
1BB
100
AcDbXrecord
340
0
  0
XRECORD
  5
1CA
102
{ACAD_REACTORS
330
1BB
102
}
330
1BB
100
AcDbXrecord
 70
     0
  0
XRECORD
  5
1BF
102
{ACAD_REACTORS
330
1BB
102
}
330
1BB
100
AcDbXrecord
  1

  0
XRECORD
  5
1BC
102
{ACAD_REACTORS
330
1BB
102
}
330
1BB
100
AcDbXrecord
 90
        1
  0
XRECORD
  5
1BD
102
{ACAD_REACTORS
330
1BB
102
}
330
1BB
100
AcDbXrecord
 90
       70
  0
XRECORD
  5
1D4
102
{ACAD_REACTORS
330
1BB
102
}
330
1BB
100
AcDbXrecord
340
0
  0
XRECORD
  5
1DA
102
{ACAD_REACTORS
330
1BB
102
}
330
1BB
100
AcDbXrecord
 10
0.0
 20
0.0
 30
0.0
  0
XRECORD
  5
1D6
102
{ACAD_REACTORS
330
1BB
102
}
330
1BB
100
AcDbXrecord
 10
0.0
 20
0.0
 30
0.0
  0
XRECORD
  5
1D9
102
{ACAD_REACTORS
330
1BB
102
}
330
1BB
100
AcDbXrecord
 10
0.0
 20
0.0
 30
0.0
  0
XRECORD
  5
1D7
102
{ACAD_REACTORS
330
1BB
102
}
330
1BB
100
AcDbXrecord
 10
0.0
 20
0.0
 30
0.0
  0
XRECORD
  5
1D8
102
{ACAD_REACTORS
330
1BB
102
}
330
1BB
100
AcDbXrecord
 10
0.0
 20
0.0
 30
0.0
  0
XRECORD
  5
1D5
102
{ACAD_REACTORS
330
1BB
102
}
330
1BB
100
AcDbXrecord
 10
0.0
 20
0.0
 30
0.0
  0
XRECORD
  5
1D2
102
{ACAD_REACTORS
330
1BB
102
}
330
1BB
100
AcDbXrecord
340
0
  0
XRECORD
  5
1D3
102
{ACAD_REACTORS
330
1BB
102
}
330
1BB
100
AcDbXrecord
 70
     0
  0
XRECORD
  5
1C7
102
{ACAD_REACTORS
330
1BB
102
}
330
1BB
100
AcDbXrecord
  1
{FAEB1C32-E019-11D5-929B-00C0DF256EC4}
  0
DICTIONARYVAR
  5
1E5
102
{ACAD_REACTORS
330
1DC
102
}
330
1DC
100
DictionaryVariables
280
     0
  1
1:1
  0
DICTIONARYVAR
  5
1DE
102
{ACAD_REACTORS
330
1DC
102
}
330
1DC
100
DictionaryVariables
280
     0
  1
Standard
  0
DICTIONARYVAR
  5
1DD
102
{ACAD_REACTORS
330
1DC
102
}
330
1DC
100
DictionaryVariables
280
     0
  1
Standard
  0
DICTIONARYVAR
  5
1E1
102
{ACAD_REACTORS
330
1DC
102
}
330
1DC
100
DictionaryVariables
280
     0
  1
2
  0
DICTIONARYVAR
  5
1E2
102
{ACAD_REACTORS
330
1DC
102
}
330
1DC
100
DictionaryVariables
280
     0
  1
1
  0
DICTIONARYVAR
  5
1E6
102
{ACAD_REACTORS
330
1DC
102
}
330
1DC
100
DictionaryVariables
280
     0
  1
1
  0
DICTIONARY
  5
1E9
330
45
100
AcDbDictionary
280
     1
  3
ACAD_XREC_ROUNDTRIP
360
1EA
  0
DICTIONARY
  5
1E7
330
44
100
AcDbDictionary
280
     1
  3
ACAD_XREC_ROUNDTRIP
360
1E8
  0
DICTIONARY
  5
1EB
330
46
100
AcDbDictionary
280
     1
  3
ACAD_XREC_ROUNDTRIP
360
1EC
  0
XRECORD
  5
1EA
102
{ACAD_REACTORS
330
1E9
102
}
330
1E9
100
AcDbXrecord
102
MATERIAL
148
0.0
149
0.0
149
0.0
 93
        0
 94
      127
282
     0
 72
     1
 77
     1
171
     1
175
     1
179
     1
273
     0
  0
XRECORD
  5
1E8
102
{ACAD_REACTORS
330
1E7
102
}
330
1E7
100
AcDbXrecord
102
MATERIAL
148
0.0
149
0.0
149
0.0
 93
        0
 94
      127
282
     0
 72
     1
 77
     1
171
     1
175
     1
179
     1
273
     0
  0
XRECORD
  5
1EC
102
{ACAD_REACTORS
330
1EB
102
}
330
1EB
100
AcDbXrecord
102
MATERIAL
148
0.0
149
0.0
149
0.0
 93
        0
 94
      127
282
     0
 72
     1
 77
     1
171
     1
175
     1
179
     1
273
     0
  0
ENDSEC
  0
EOF
